<?xml version="1.0" encoding="UTF-8"?>
<!--Generator: Apple Native CoreSVG 341-->
<!DOCTYPE svg
PUBLIC "-//W3C//DTD SVG 1.1//EN"
       "http://www.w3.org/Graphics/SVG/1.1/DTD/svg11.dtd">
<svg version="1.1" xmlns="http://www.w3.org/2000/svg" xmlns:xlink="http://www.w3.org/1999/xlink" viewBox="0 0 3300 2200">
 <g id="Notes">
  <rect height="2200" id="artboard" style="fill:white;opacity:1" width="3300" x="0" y="0"/>
  <line style="fill:none;stroke:black;opacity:1;stroke-width:0.5;" x1="263" x2="3036" y1="292" y2="292"/>
  <text style="stroke:none;fill:black;font-family:sans-serif;font-size:13;font-weight:bold;" transform="matrix(1 0 0 1 263 322)">Weight/Scale Variations</text>
  <text style="stroke:none;fill:black;font-family:sans-serif;font-size:13;text-anchor:middle;" transform="matrix(1 0 0 1 559.711 322)">Ultralight</text>
  <text style="stroke:none;fill:black;font-family:sans-serif;font-size:13;text-anchor:middle;" transform="matrix(1 0 0 1 856.422 322)">Thin</text>
  <text style="stroke:none;fill:black;font-family:sans-serif;font-size:13;text-anchor:middle;" transform="matrix(1 0 0 1 1153.13 322)">Light</text>
  <text style="stroke:none;fill:black;font-family:sans-serif;font-size:13;text-anchor:middle;" transform="matrix(1 0 0 1 1449.84 322)">Regular</text>
  <text style="stroke:none;fill:black;font-family:sans-serif;font-size:13;text-anchor:middle;" transform="matrix(1 0 0 1 1746.56 322)">Medium</text>
  <text style="stroke:none;fill:black;font-family:sans-serif;font-size:13;text-anchor:middle;" transform="matrix(1 0 0 1 2043.27 322)">Semibold</text>
  <text style="stroke:none;fill:black;font-family:sans-serif;font-size:13;text-anchor:middle;" transform="matrix(1 0 0 1 2339.98 322)">Bold</text>
  <text style="stroke:none;fill:black;font-family:sans-serif;font-size:13;text-anchor:middle;" transform="matrix(1 0 0 1 2636.69 322)">Heavy</text>
  <text style="stroke:none;fill:black;font-family:sans-serif;font-size:13;text-anchor:middle;" transform="matrix(1 0 0 1 2933.4 322)">Black</text>
  <line style="fill:none;stroke:black;opacity:1;stroke-width:0.5;" x1="263" x2="3036" y1="1903" y2="1903"/>
  <g transform="matrix(0.2 0 0 0.2 263 1933)">
   <path d="m46.2402 4.15039c21.7773 0 39.4531-17.627 39.4531-39.4043s-17.6758-39.4043-39.4531-39.4043c-21.7285 0-39.4043 17.627-39.4043 39.4043s17.6758 39.4043 39.4043 39.4043Zm0-7.42188c-17.6758 0-31.9336-14.3066-31.9336-31.9824s14.2578-31.9824 31.9336-31.9824 31.9824 14.3066 31.9824 31.9824-14.3066 31.9824-31.9824 31.9824Zm3.61328-17.7734v-28.4668c0-2.24609-1.46484-3.75977-3.71094-3.75977-2.14844 0-3.61328 1.51367-3.61328 3.75977v28.4668c0 2.19727 1.46484 3.71094 3.61328 3.71094 2.24609 0 3.71094-1.51367 3.71094-3.71094Zm-17.8223-10.5957h28.418c2.19727 0 3.71094-1.46484 3.71094-3.61328 0-2.19727-1.51367-3.71094-3.71094-3.71094h-28.418c-2.24609 0-3.75977 1.51367-3.75977 3.71094 0 2.14844 1.51367 3.61328 3.75977 3.61328Z"/>
  </g>
  <g transform="matrix(0.2 0 0 0.2 281.506 1933)">
   <path d="m58.5449 14.5508c27.4902 0 49.8047-22.3145 49.8047-49.8047s-22.3145-49.8047-49.8047-49.8047-49.8047 22.3145-49.8047 49.8047 22.3145 49.8047 49.8047 49.8047Zm0-8.30078c-22.9492 0-41.5039-18.5547-41.5039-41.5039s18.5547-41.5039 41.5039-41.5039 41.5039 18.5547 41.5039 41.5039-18.5547 41.5039-41.5039 41.5039Zm4.05273-23.0957v-36.9141c0-2.49023-1.70898-4.19922-4.15039-4.19922-2.39258 0-4.05273 1.70898-4.05273 4.19922v36.9141c0 2.44141 1.66016 4.15039 4.05273 4.15039 2.44141 0 4.15039-1.66016 4.15039-4.15039Zm-22.5586-14.4043h36.9629c2.44141 0 4.15039-1.61133 4.15039-4.00391 0-2.44141-1.70898-4.15039-4.15039-4.15039h-36.9629c-2.49023 0-4.15039 1.70898-4.15039 4.15039 0 2.39258 1.66016 4.00391 4.15039 4.00391Z"/>
  </g>
  <g transform="matrix(0.2 0 0 0.2 304.924 1933)">
   <path d="m74.8535 28.3203c35.1074 0 63.623-28.4668 63.623-63.5742s-28.5156-63.623-63.623-63.623-63.5742 28.5156-63.5742 63.623 28.4668 63.5742 63.5742 63.5742Zm0-9.08203c-30.127 0-54.4922-24.3652-54.4922-54.4922s24.3652-54.4922 54.4922-54.4922 54.4922 24.3652 54.4922 54.4922-24.3652 54.4922-54.4922 54.4922Zm4.44336-30.3223v-48.4863c0-2.73438-1.85547-4.63867-4.54102-4.63867-2.58789 0-4.44336 1.9043-4.44336 4.63867v48.4863c0 2.68555 1.85547 4.58984 4.44336 4.58984 2.68555 0 4.54102-1.85547 4.54102-4.58984Zm-28.7109-19.7754h48.4863c2.68555 0 4.58984-1.80664 4.58984-4.39453 0-2.73438-1.85547-4.58984-4.58984-4.58984h-48.4863c-2.73438 0-4.58984 1.85547-4.58984 4.58984 0 2.58789 1.85547 4.39453 4.58984 4.39453Z"/>
  </g>
  <text style="stroke:none;fill:black;font-family:sans-serif;font-size:13;font-weight:bold;" transform="matrix(1 0 0 1 263 1953)">Design Variations</text>
  <text style="stroke:none;fill:black;font-family:sans-serif;font-size:13;" transform="matrix(1 0 0 1 263 1971)">Symbols are supported in up to nine weights and three scales.</text>
  <text style="stroke:none;fill:black;font-family:sans-serif;font-size:13;" transform="matrix(1 0 0 1 263 1989)">For optimal layout with text and other symbols, vertically align</text>
  <text style="stroke:none;fill:black;font-family:sans-serif;font-size:13;" transform="matrix(1 0 0 1 263 2007)">symbols with the adjacent text.</text>
  <line style="fill:none;stroke:#00AEEF;stroke-width:0.5;opacity:1.0;" x1="776" x2="776" y1="1919" y2="1933"/>
  <g transform="matrix(0.2 0 0 0.2 776 1933)">
   <path d="m16.5527 0.78125c2.58789 0 3.85742-0.976562 4.78516-3.71094l20.5566-57.5195h0.244141l20.6055 57.5195c0.927734 2.73438 2.19727 3.71094 4.73633 3.71094 2.58789 0 4.24805-1.5625 4.24805-4.00391 0-0.830078-0.146484-1.61133-0.537109-2.63672l-22.9004-60.9863c-1.12305-2.97852-3.125-4.49219-6.25-4.49219-3.02734 0-5.07812 1.46484-6.15234 4.44336l-22.9004 61.084c-0.390625 1.02539-0.537109 1.80664-0.537109 2.63672 0 2.44141 1.5625 3.95508 4.10156 3.95508Zm10.2051-20.9473h30.6641c2.00195 0 3.66211-1.66016 3.66211-3.66211 0-2.05078-1.66016-3.66211-3.66211-3.66211h-30.6641c-2.00195 0-3.66211 1.61133-3.66211 3.66211 0 2.00195 1.66016 3.66211 3.66211 3.66211Z"/>
  </g>
  <line style="fill:none;stroke:#00AEEF;stroke-width:0.5;opacity:1.0;" x1="792.836" x2="792.836" y1="1919" y2="1933"/>
  <text style="stroke:none;fill:black;font-family:sans-serif;font-size:13;font-weight:bold;" transform="matrix(1 0 0 1 776 1953)">Margins</text>
  <text style="stroke:none;fill:black;font-family:sans-serif;font-size:13;" transform="matrix(1 0 0 1 776 1971)">Leading and trailing margins on the left and right side of each symbol</text>
  <text style="stroke:none;fill:black;font-family:sans-serif;font-size:13;" transform="matrix(1 0 0 1 776 1989)">can be adjusted by modifying the x-location of the margin guidelines.</text>
  <text style="stroke:none;fill:black;font-family:sans-serif;font-size:13;" transform="matrix(1 0 0 1 776 2007)">Modifications are automatically applied proportionally to all</text>
  <text style="stroke:none;fill:black;font-family:sans-serif;font-size:13;" transform="matrix(1 0 0 1 776 2025)">scales and weights.</text>
  <g transform="matrix(0.2 0 0 0.2 1289 1933)">
   <path d="m14.209 13.1348 7.86133 7.86133c4.29688 4.39453 9.32617 4.10156 13.8672-1.02539l60.6934-68.2129-4.88281-4.88281-60.2539 67.6758c-1.80664 1.95312-3.4668 2.44141-5.81055 0.0976562l-5.17578-5.12695c-2.29492-2.29492-1.80664-3.95508 0.195312-5.81055l67.4805-62.1582-4.88281-4.83398-68.0664 62.5977c-4.98047 4.58984-5.32227 9.47266-1.02539 13.8184Zm44.873-97.4609c-2.05078 2.00195-2.24609 4.88281-1.07422 6.78711 1.12305 1.80664 3.4668 3.02734 6.5918 2.24609 5.85938-1.66016 12.5977-2.39258 18.8965 0.927734l-2.68555 7.12891c-1.61133 4.00391-0.732422 6.88477 1.70898 9.42383l10.2539 10.3027c2.34375 2.39258 4.54102 2.44141 7.08008 1.95312l4.44336-0.732422 2.58789 2.53906-0.195312 2.24609c-0.0976562 2.29492 0.537109 4.29688 2.7832 6.49414l3.36914 3.32031c2.29492 2.29492 5.51758 2.49023 7.8125 0.195312l12.9883-13.0371c2.29492-2.34375 2.14844-5.37109-0.195312-7.66602l-3.41797-3.41797c-2.19727-2.19727-4.05273-3.02734-6.34766-2.88086l-2.34375 0.244141-2.44141-2.44141 1.02539-4.6875c0.634766-2.73438-0.244141-4.98047-2.88086-7.61719l-11.2793-11.1816c-12.9395-12.8418-35.5957-11.0352-46.6797-0.146484Zm7.08008 2.05078c8.78906-6.39648 25.9766-5.66406 33.6914 1.95312l12.3047 12.207c1.02539 1.02539 1.2207 1.80664 0.927734 3.32031l-1.46484 6.64062 6.73828 6.68945 4.39453-0.244141c1.12305-0.0488281 1.51367 0.0488281 2.34375 0.878906l2.53906 2.49023-10.8398 10.8398-2.49023-2.49023c-0.830078-0.878906-0.976562-1.2207-0.927734-2.39258l0.292969-4.3457-6.68945-6.73828-6.83594 1.17188c-1.41602 0.292969-2.05078 0.195312-3.17383-0.878906l-8.93555-8.88672c-1.07422-1.02539-1.17188-1.70898-0.488281-3.36914l4.58984-11.4746c-6.10352-6.34766-17.041-7.51953-25.5859-4.58984-0.683594 0.244141-0.927734-0.390625-0.390625-0.78125Z"/>
  </g>
  <text style="stroke:none;fill:black;font-family:sans-serif;font-size:13;font-weight:bold;" transform="matrix(1 0 0 1 1289 1953)">Exporting</text>
  <text style="stroke:none;fill:black;font-family:sans-serif;font-size:13;" transform="matrix(1 0 0 1 1289 1971)">Symbols should be outlined when exporting to ensure the</text>
  <text style="stroke:none;fill:black;font-family:sans-serif;font-size:13;" transform="matrix(1 0 0 1 1289 1989)">design is preserved when submitting to Xcode.</text>
  <text id="template-version" style="stroke:none;fill:black;font-family:sans-serif;font-size:13;text-anchor:end;" transform="matrix(1 0 0 1 3036 1933)">Template v.2.0</text>
  <text style="stroke:none;fill:black;font-family:sans-serif;font-size:13;text-anchor:end;" transform="matrix(1 0 0 1 3036 1951)">Requires Xcode 12 or greater</text>
  <text id="descriptive-name" style="stroke:none;fill:black;font-family:sans-serif;font-size:13;text-anchor:end;" transform="matrix(1 0 0 1 3036 1969)">Generated from bolt</text>
  <text style="stroke:none;fill:black;font-family:sans-serif;font-size:13;text-anchor:end;" transform="matrix(1 0 0 1 3036 1987)">Typeset at 100.0 points</text>
  <text style="stroke:none;fill:black;font-family:sans-serif;font-size:13;" transform="matrix(1 0 0 1 263 726)">Small</text>
  <text style="stroke:none;fill:black;font-family:sans-serif;font-size:13;" transform="matrix(1 0 0 1 263 1156)">Medium</text>
  <text style="stroke:none;fill:black;font-family:sans-serif;font-size:13;" transform="matrix(1 0 0 1 263 1586)">Large</text>
 </g>
 <g id="Guides">
  <g id="H-reference" style="fill:#27AAE1;stroke:none;" transform="matrix(1 0 0 1 339 696)">
   <path d="M0.993654 0L3.63775 0L29.3281-67.1323L30.0303-67.1323L30.0303-70.459L28.1226-70.459ZM11.6885-24.4799L46.9815-24.4799L46.2315-26.7285L12.4385-26.7285ZM55.1196 0L57.7637 0L30.6382-70.459L29.4326-70.459L29.4326-67.1323Z"/>
  </g>
  <line id="Baseline-S" style="fill:none;stroke:#27AAE1;opacity:1;stroke-width:0.5;" x1="263" x2="3036" y1="696" y2="696"/>
  <line id="Capline-S" style="fill:none;stroke:#27AAE1;opacity:1;stroke-width:0.5;" x1="263" x2="3036" y1="625.541" y2="625.541"/>
  <g id="H-reference" style="fill:#27AAE1;stroke:none;" transform="matrix(1 0 0 1 339 1126)">
   <path d="M0.993654 0L3.63775 0L29.3281-67.1323L30.0303-67.1323L30.0303-70.459L28.1226-70.459ZM11.6885-24.4799L46.9815-24.4799L46.2315-26.7285L12.4385-26.7285ZM55.1196 0L57.7637 0L30.6382-70.459L29.4326-70.459L29.4326-67.1323Z"/>
  </g>
  <line id="Baseline-M" style="fill:none;stroke:#27AAE1;opacity:1;stroke-width:0.5;" x1="263" x2="3036" y1="1126" y2="1126"/>
  <line id="Capline-M" style="fill:none;stroke:#27AAE1;opacity:1;stroke-width:0.5;" x1="263" x2="3036" y1="1055.54" y2="1055.54"/>
  <g id="H-reference" style="fill:#27AAE1;stroke:none;" transform="matrix(1 0 0 1 339 1556)">
   <path d="M0.993654 0L3.63775 0L29.3281-67.1323L30.0303-67.1323L30.0303-70.459L28.1226-70.459ZM11.6885-24.4799L46.9815-24.4799L46.2315-26.7285L12.4385-26.7285ZM55.1196 0L57.7637 0L30.6382-70.459L29.4326-70.459L29.4326-67.1323Z"/>
  </g>
  <line id="Baseline-L" style="fill:none;stroke:#27AAE1;opacity:1;stroke-width:0.5;" x1="263" x2="3036" y1="1556" y2="1556"/>
  <line id="Capline-L" style="fill:none;stroke:#27AAE1;opacity:1;stroke-width:0.5;" x1="263" x2="3036" y1="1485.54" y2="1485.54"/>
  <line id="right-margin" style="fill:none;stroke:#00AEEF;stroke-width:0.5;opacity:1.0;" x1="1497.94" x2="1497.94" y1="1030.79" y2="1150.12"/>
  <line id="left-margin" style="fill:none;stroke:#00AEEF;stroke-width:0.5;opacity:1.0;" x1="1401.75" x2="1401.75" y1="1030.79" y2="1150.12"/>
 </g>
 <g id="Symbols">
  <g id="Black-L" transform="matrix(1 0 0 1 2866.15 1556)">
   <path d="M52.0216 37.8568L116.274-42.2024C117.568-43.8352 118.265-45.424 118.265-47.1737C118.265-50.4406 115.772-52.7436 112.416-52.7436L75.1823-52.7436L93.388-103.408C96.3504-111.765 87.8509-116.092 82.4715-109.361L18.2201-29.302C16.9261-27.6692 16.2292-26.0804 16.2292-24.3308C16.2292-21.0639 18.7418-18.7609 22.0779-18.7609L59.3108-18.7609L41.1063 31.9032C38.1635 40.2605 46.6434 44.5877 52.0216 37.8568ZM55.6622 18.3242L79.3947-31.6793L39.2256-31.6793L82.6108-88.5979L78.8697-89.8286L55.158-39.8251L95.3051-39.8251L51.921 17.0934Z"/>
  </g>
  <g id="Heavy-L" transform="matrix(1 0 0 1 2570.71 1556)">
   <path d="M50.8511 36.397L113.421-42.0884C114.647-43.6495 115.313-45.139 115.313-46.7893C115.313-49.8228 113.008-51.9912 109.855-51.9912L72.9725-51.9912L91.3459-102.316C94.1654-110.151 86.1361-114.232 81.0993-107.901L18.5351-29.416C17.309-27.8549 16.6435-26.3654 16.6435-24.7151C16.6435-21.6816 18.9724-19.5133 22.101-19.5133L58.9779-19.5133L40.6101 30.812C37.8152 38.6469 45.8199 42.7279 50.8511 36.397ZM54.464 17.7089L77.527-31.4608L37.6839-31.4608L80.7546-88.0543L77.5064-89.2133L54.4736-40.0437L94.281-40.0437L51.2159 16.5499Z"/>
  </g>
  <g id="Bold-L" transform="matrix(1 0 0 1 2275.51 1556)">
   <path d="M49.3169 34.6061L109.953-42.0171C111.087-43.4712 111.707-44.8228 111.707-46.3353C111.707-49.0247 109.678-50.9943 106.816-50.9943L70.2892-50.9943L88.8849-101.061C91.483-108.153 84.1642-111.86 79.6098-106.111L18.9865-29.4874C17.8524-28.0333 17.2328-26.6816 17.2328-25.1691C17.2328-22.4797 19.2866-20.5101 22.1243-20.5101L58.6375-20.5101L40.055 29.5565C37.4817 36.649 44.7757 40.3557 49.3169 34.6061ZM52.832 17.2909L75.0576-31.1173L35.6514-31.1173L78.7476-87.7434L76.0992-88.7954L53.9115-40.3872L93.2665-40.3872L50.1835 16.2389Z"/>
  </g>
  <g id="Semibold-L" transform="matrix(1 0 0 1 1979.84 1556)">
   <path d="M48.2593 33.3714L107.563-41.9679C108.634-43.3482 109.222-44.6048 109.222-46.0223C109.222-48.4745 107.382-50.307 104.72-50.307L68.4393-50.307L87.1884-100.195C89.6337-106.776 82.8049-110.225 78.5829-104.876L19.2978-29.5365C18.2271-28.1562 17.6391-26.8996 17.6391-25.4822C17.6391-23.0299 19.5032-21.1974 22.1403-21.1974L58.4029-21.1974L39.6723 28.691C37.2518 35.2717 44.0558 38.7203 48.2593 33.3714ZM51.7068 17.0028L73.3552-30.8804L34.2503-30.8804L77.3641-87.529L75.1291-88.5072L53.524-40.624L92.5671-40.624L49.4718 16.0246Z"/>
  </g>
  <g id="Medium-L" transform="matrix(1 0 0 1 1683.91 1556)">
   <path d="M47.4573 32.4353L105.75-41.9306C106.773-43.255 107.337-44.4396 107.337-45.785C107.337-48.0573 105.642-49.7859 103.132-49.7859L67.0366-49.7859L85.9019-99.5392C88.2315-105.732 81.7742-108.985 77.8043-103.94L19.5338-29.5738C18.5111-28.2495 17.9471-27.0649 17.9471-25.7195C17.9471-23.4471 19.6674-21.7185 22.1524-21.7185L58.225-21.7185L39.3821 28.0347C37.0775 34.2274 43.5099 37.4803 47.4573 32.4353ZM50.8537 16.7843L72.0644-30.7009L33.1879-30.7009L76.315-87.3665L74.3935-88.2888L53.2301-40.8036L92.0368-40.8036L48.9321 15.862Z"/>
  </g>
  <g id="Regular-L" transform="matrix(1 0 0 1 1388.23 1556)">
   <path d="M46.4113 31.2142L103.386-41.882C104.346-43.1334 104.879-44.224 104.879-45.4754C104.879-47.5131 103.371-49.1062 101.059-49.1062L65.207-49.1062L84.224-98.6832C86.4026-104.37 80.4297-107.367 76.7887-102.719L19.8416-29.6225C18.8816-28.371 18.3489-27.2805 18.3489-26.0291C18.3489-23.9913 19.8816-22.3982 22.1682-22.3982L57.993-22.3982L39.0037 27.1787C36.8502 32.8652 42.7979 35.8629 46.4113 31.2142ZM49.7409 16.4994L70.3808-30.4667L31.8021-30.4667L74.9467-87.1545L73.434-88.0038L52.8469-41.0378L91.3451-41.0378L48.2282 15.65Z"/>
  </g>
  <g id="Light-L" transform="matrix(1 0 0 1 1092.15 1556)">
   <path d="M44.8081 30.0882L101.42-42.2828C102.266-43.3433 102.722-44.2431 102.722-45.3036C102.722-46.7497 101.673-47.9993 99.8189-47.9993L63.6993-47.9993L82.9643-98.4351C84.704-102.995 80.048-105.287 77.1131-101.593L20.5477-29.2217C19.7023-28.1611 19.2459-27.2614 19.2459-26.2008C19.2459-24.7547 20.2824-23.5051 22.1492-23.5051L58.222-23.5051L39.0037 26.9306C37.251 31.491 41.92 33.7826 44.8081 30.0882ZM47.6606 18.427L67.6707-29.7605L29.6073-29.7605L75.4429-89.273L74.2737-89.9314L54.2974-41.7439L92.2802-41.7439L46.4915 17.7685Z"/>
  </g>
  <g id="Thin-L" transform="matrix(1 0 0 1 796.271 1556)">
   <path d="M42.6878 28.5989L98.8204-42.8129C99.5144-43.621 99.8698-44.2683 99.8698-45.0764C99.8698-45.7401 99.4261-46.5353 98.1781-46.5353L61.7052-46.5353L81.2984-98.1069C82.4575-101.178 79.5432-102.536 77.5422-100.103L21.4817-28.6916C20.7877-27.8834 20.4323-27.2361 20.4323-26.428C20.4323-25.7644 20.8124-24.9692 22.1239-24.9692L58.5249-24.9692L39.0037 26.6025C37.781 29.6736 40.7589 31.0312 42.6878 28.5989ZM44.9092 20.9764L64.0863-28.8266L26.7045-28.8266L76.0992-92.0748L75.3844-92.4808L56.2157-42.6779L93.5171-42.6779L44.1944 20.5703Z"/>
  </g>
  <g id="Ultralight-L" transform="matrix(1 0 0 1 499.987 1556)">
   <path d="M41.6018 27.8361L97.4887-43.0844C98.1051-43.7632 98.4088-44.2812 98.4088-44.9601C98.4088-45.2229 98.2754-45.7854 97.3378-45.7854L60.6838-45.7854L80.4451-97.9388C81.3068-100.247 79.2846-101.126 77.762-99.3406L21.96-28.4201C21.3436-27.7412 21.0399-27.2232 21.0399-26.5444C21.0399-26.2815 21.0839-25.719 22.111-25.719L58.68-25.719L39.0037 26.4344C38.0525 28.7428 40.1641 29.622 41.6018 27.8361ZM43.5 22.2822L62.2504-28.3482L25.2177-28.3482L76.4353-93.5099L75.9532-93.7866L57.1983-43.1562L94.1506-43.1562L43.0179 22.0054Z"/>
  </g>
  <g id="Black-M" transform="matrix(1 0 0 1 2880.3 1126)">
   <path d="M41.092 22.4955L92.2684-40.784C93.3137-42.0848 93.8703-43.3752 93.8703-44.7902C93.8703-47.4416 91.8387-49.295 89.127-49.295L59.9417-49.295L73.9359-88.9542C76.2944-95.7254 69.4839-99.1937 65.1175-93.7645L13.9408-30.4849C12.8955-29.1841 12.3388-27.8937 12.3388-26.4787C12.3388-23.8273 14.3762-21.9739 17.0822-21.9739L46.2678-21.9739L32.2732 17.6852C29.9206 24.4565 36.7253 27.9248 41.092 22.4955ZM43.8717 7.05074L62.7484-32.5712L31.4173-32.5712L65.6646-77.3304L62.389-78.3197L43.5179-38.6978L74.8437-38.6978L40.5961 6.06145Z"/>
  </g>
  <g id="Heavy-M" transform="matrix(1 0 0 1 2584.77 1126)">
   <path d="M40.0957 21.1724L89.6605-40.6356C90.6499-41.8839 91.1829-43.0948 91.1829-44.4303C91.1829-46.9082 89.2935-48.6616 86.7375-48.6616L57.9206-48.6616L72.0559-87.9103C74.3151-94.2747 67.8427-97.5675 63.7461-92.4413L14.1836-30.6334C13.1941-29.3851 12.6611-28.1742 12.6611-26.8386C12.6611-24.3608 14.5647-22.6073 17.1066-22.6073L45.9212-22.6073L31.7882 16.6414C29.5431 23.0058 36.0013 26.2986 40.0957 21.1724ZM42.8924 6.27143L61.1726-32.4227L30.1127-32.4227L63.8042-76.6036L60.9789-77.5404L42.7151-38.8463L73.7563-38.8463L40.067 5.33466Z"/>
  </g>
  <g id="Bold-M" transform="matrix(1 0 0 1 2289.38 1126)">
   <path d="M38.9812 19.6922L86.7431-40.4695C87.6702-41.6591 88.1766-42.7811 88.1766-44.0278C88.1766-46.3114 86.4463-47.9531 84.0644-47.9531L55.6597-47.9531L69.9528-86.7426C72.101-92.6519 66.0068-95.7484 62.212-90.9612L14.4552-30.7994C13.5281-29.6099 13.0217-28.4878 13.0217-27.2412C13.0217-24.9575 14.7755-23.3158 17.1339-23.3158L45.5334-23.3158L31.2455 15.4737C29.1208 21.3829 35.1915 24.4795 38.9812 19.6922ZM41.7968 5.39965L59.4098-32.2566L28.6532-32.2566L61.7231-75.7906L59.4014-76.6686L41.817-39.0124L72.5398-39.0124L39.4751 4.52163Z"/>
  </g>
  <g id="Semibold-M" transform="matrix(1 0 0 1 1993.58 1126)">
   <path d="M38.2128 18.6718L84.7319-40.3551C85.616-41.5041 86.1041-42.5649 86.1041-43.7502C86.1041-45.9 84.4835-47.4646 82.2217-47.4646L54.1011-47.4646L68.5029-85.9376C70.5746-91.5331 64.7412-94.4944 61.1544-89.9408L14.6425-30.9139C13.7584-29.7648 13.2702-28.7041 13.2702-27.5187C13.2702-25.3689 14.9208-23.8043 17.1527-23.8043L45.2661-23.8043L30.8714 14.6687C28.8296 20.2641 34.6332 23.2254 38.2128 18.6718ZM41.0415 4.79866L58.1946-32.142L27.6471-32.142L60.2884-75.2301L58.314-76.0676L41.1979-39.1269L71.7012-39.1269L39.0671 3.96114Z"/>
  </g>
  <g id="Medium-M" transform="matrix(1 0 0 1 1697.56 1126)">
   <path d="M37.6303 17.8981L83.2069-40.2683C84.0583-41.3866 84.5327-42.4009 84.5327-43.5398C84.5327-45.5881 82.9952-47.0943 80.8244-47.0943L52.9193-47.0943L67.4036-85.3273C69.4173-90.6848 63.7815-93.5435 60.3525-89.167L14.7845-31.0007C13.933-29.8823 13.4587-28.8681 13.4587-27.7292C13.4587-25.6809 15.031-24.1747 17.1669-24.1747L45.0634-24.1747L30.5878 14.0583C28.6089 19.4158 34.2098 22.2745 37.6303 17.8981ZM40.4688 4.34296L57.2732-32.0552L26.8842-32.0552L59.2005-74.8051L57.4894-75.6119L40.7284-39.2137L71.0654-39.2137L38.7577 3.53615Z"/>
  </g>
  <g id="Regular-M" transform="matrix(1 0 0 1 1401.75 1126)">
   <path d="M36.8704 16.8889L81.2177-40.1551C82.0267-41.2333 82.4829-42.187 82.4829-43.2653C82.4829-45.1812 81.0539-46.6112 79.0019-46.6112L51.3778-46.6112L65.9696-84.5311C67.9076-89.5783 62.5298-92.3032 59.3065-88.1579L14.9697-31.1139C14.1607-30.0356 13.7045-29.0819 13.7045-28.0037C13.7045-26.0878 15.1747-24.6578 17.1855-24.6578L44.7991-24.6578L30.2178 13.2622C28.321 18.3094 33.6576 21.0342 36.8704 16.8889ZM39.7218 3.74856L56.0713-31.9419L25.8892-31.9419L57.7816-74.2508L56.4139-75.0175L40.1161-39.327L70.2359-39.327L38.3541 2.98181Z"/>
  </g>
  <g id="Light-M" transform="matrix(1 0 0 1 1105.6 1126)">
   <path d="M35.433 15.8794L79.4553-40.5144C80.1616-41.4216 80.5494-42.2041 80.5494-43.1113C80.5494-44.4967 79.5311-45.6187 77.8897-45.6187L50.026-45.6187L64.8403-84.3087C66.3848-88.3463 62.1876-90.4381 59.5974-87.1483L15.6028-30.7545C14.8965-29.8474 14.5087-29.0648 14.5087-28.1576C14.5087-26.7722 15.534-25.6502 17.1684-25.6502L45.0044-25.6502L30.2178 13.0397C28.6803 17.0774 32.8705 19.1691 35.433 15.8794ZM37.8567 5.47677L53.6415-31.3088L23.9214-31.3088L58.2264-76.1501L57.1667-76.7457L41.4166-39.9601L71.0744-39.9601L36.797 4.88112Z"/>
  </g>
  <g id="Thin-M" transform="matrix(1 0 0 1 809.64 1126)">
   <path d="M33.5321 14.5442L77.1244-40.9896C77.6949-41.6705 77.9921-42.2268 77.9921-42.9076C77.9921-43.5915 77.5169-44.3062 76.4187-44.3062L48.2382-44.3062L63.3467-84.0145C64.3706-86.7169 61.735-87.9713 59.9821-85.8131L16.4401-30.2793C15.8696-29.5984 15.5723-29.0422 15.5723-28.3613C15.5723-27.6774 16.0093-26.9628 17.1458-26.9628L45.276-26.9628L30.2178 12.7455C29.1556 15.448 31.8295 16.7024 33.5321 14.5442ZM35.39 7.76246L50.428-30.4715L21.3189-30.4715L58.8148-78.6621L58.1625-79.0314L43.1365-40.7974L72.1833-40.7974L34.7376 7.39312Z"/>
  </g>
  <g id="Ultralight-M" transform="matrix(1 0 0 1 513.311 1126)">
   <path d="M32.5584 13.8603L75.9305-41.2331C76.4314-41.798 76.6823-42.2383 76.6823-42.8033C76.6823-43.1279 76.4853-43.6339 75.6652-43.6339L47.3225-43.6339L62.5817-83.8638C63.339-85.8824 61.5031-86.7079 60.1792-85.1292L16.869-30.0359C16.368-29.4709 16.1171-29.0306 16.1171-28.4656C16.1171-28.1411 16.2527-27.6351 17.1342-27.6351L45.4151-27.6351L30.2178 12.5948C29.399 14.6134 31.2963 15.4389 32.5584 13.8603ZM34.1265 8.93318L48.782-30.0426L19.9859-30.0426L59.1162-79.9487L58.6725-80.2021L44.0174-41.2263L72.7513-41.2263L33.6828 8.67975Z"/>
  </g>
  <g id="Black-S" transform="matrix(1 0 0 1 2891.46 696)">
   <path d="M32.4219 10.3516L72.998-39.6484C73.8281-40.6738 74.2676-41.6992 74.2676-42.8223C74.2676-44.9219 72.6562-46.3867 70.5078-46.3867L47.5098-46.3867L58.4473-77.6367C60.3027-83.0078 54.9316-85.7422 51.4648-81.4453L10.8887-31.4453C10.0586-30.4199 9.61914-29.3945 9.61914-28.2715C9.61914-26.1719 11.2305-24.707 13.3789-24.707L36.377-24.707L25.4395 6.54297C23.584 11.9141 28.9551 14.6484 32.4219 10.3516ZM34.5703-1.75781L49.5117-33.1543L24.9023-33.1543L52.0508-68.5547L49.3652-69.3359L34.4238-37.9395L59.0332-37.9395L31.8848-2.53906Z"/>
  </g>
  <g id="Heavy-S" transform="matrix(1 0 0 1 2595.68 696)">
   <path d="M31.7535 9.34893L70.9928-39.4756C71.7883-40.4779 72.2162-41.4572 72.2162-42.5342C72.2162-44.5531 70.674-45.9718 68.6063-45.9718L45.954-45.9718L56.9837-76.7724C58.8046-81.9245 53.5718-84.5897 50.2548-80.4427L11.0154-31.6182C10.2199-30.6158 9.79201-29.6365 9.79201-28.5596C9.79201-26.5407 11.3457-25.1219 13.402-25.1219L36.0543-25.1219L25.0246 5.67863C23.2152 10.8308 28.4365 13.496 31.7535 9.34893ZM33.971-2.6452L48.4745-33.1082L24.038-33.1082L50.4028-67.6904L48.063-68.4486L33.571-37.9856L57.996-37.9856L31.6312-3.4034Z"/>
  </g>
  <g id="Bold-S" transform="matrix(1 0 0 1 2300.02 696)">
   <path d="M31.0059 8.22754L68.75-39.2822C69.5068-40.2588 69.9219-41.1865 69.9219-42.2119C69.9219-44.1406 68.457-45.5078 66.4795-45.5078L44.2139-45.5078L55.3467-75.8057C57.1289-80.7129 52.0508-83.3008 48.9014-79.3213L11.1572-31.8115C10.4004-30.835 9.98535-29.9072 9.98535-28.8818C9.98535-26.9531 11.4746-25.5859 13.4277-25.5859L35.6934-25.5859L24.5605 4.71191C22.8027 9.61914 27.8564 12.207 31.0059 8.22754ZM33.3008-3.6377L47.3145-33.0566L23.0713-33.0566L48.5596-66.7236L46.6064-67.4561L32.6172-38.0371L56.8359-38.0371L31.3477-4.37012Z"/>
  </g>
  <g id="Semibold-S" transform="matrix(1 0 0 1 2004.04 696)">
   <path d="M30.4904 7.45439L67.2037-39.1489C67.9339-40.1077 68.34-40.9999 68.34-41.9897C68.34-43.8563 66.9285-45.1879 65.0132-45.1879L43.0142-45.1879L54.2181-75.1392C55.9736-79.8775 51.0021-82.4121 47.9683-78.5481L11.255-31.9448C10.5248-30.986 10.1187-30.0938 10.1187-29.104C10.1187-27.2375 11.5635-25.9059 13.4455-25.9059L35.4445-25.9059L24.2406 4.04541C22.5184 8.78379 27.4565 11.3184 30.4904 7.45439ZM32.8387-4.32197L46.5146-33.0211L22.4048-33.0211L47.2888-66.0571L45.6022-66.7718L31.9596-38.0727L56.0361-38.0727L31.1521-5.03662Z"/>
  </g>
  <g id="Medium-S" transform="matrix(1 0 0 1 1707.88 696)">
   <path d="M30.0996 6.86816L66.0312-39.0479C66.7412-39.9932 67.1406-40.8584 67.1406-41.8213C67.1406-43.6406 65.7695-44.9453 63.9014-44.9453L42.1045-44.9453L53.3623-74.6338C55.0977-79.2441 50.207-81.7383 47.2607-77.9619L11.3291-32.0459C10.6191-31.1006 10.2197-30.2354 10.2197-29.2725C10.2197-27.4531 11.6309-26.1484 13.459-26.1484L35.2559-26.1484L23.998 3.54004C22.3027 8.15039 27.1533 10.6445 30.0996 6.86816ZM32.4883-4.84082L45.9082-32.9941L21.8994-32.9941L46.3252-65.5518L44.8408-66.2529L31.4609-38.0996L55.4297-38.0996L31.0039-5.54199Z"/>
  </g>
  <g id="Regular-S" transform="matrix(1 0 0 1 1411.88 696)">
   <path d="M29.5898 6.10352L64.502-38.916C65.1855-39.8438 65.5762-40.6738 65.5762-41.6016C65.5762-43.3594 64.2578-44.6289 62.4512-44.6289L40.918-44.6289L52.2461-73.9746C53.9551-78.418 49.1699-80.8594 46.3379-77.1973L11.4258-32.1777C10.7422-31.25 10.3516-30.4199 10.3516-29.4922C10.3516-27.7344 11.7188-26.4648 13.4766-26.4648L35.0098-26.4648L23.6816 2.88086C22.0215 7.32422 26.7578 9.76562 29.5898 6.10352ZM32.0312-5.51758L45.1172-32.959L21.2402-32.959L45.0684-64.8926L43.8477-65.5762L30.8105-38.1348L54.6387-38.1348L30.8105-6.20117Z"/>
  </g>
  <g id="Light-S" transform="matrix(1 0 0 1 1115.67 696)">
   <path d="M28.3184 5.21046L62.9429-39.2339C63.5357-40.0103 63.8657-40.689 63.8657-41.4653C63.8657-42.7539 62.9107-43.751 61.4673-43.751L39.7222-43.751L51.2471-73.7778C52.6079-77.3281 48.8672-79.2095 46.5952-76.3042L11.9858-31.8599C11.3931-31.0835 11.063-30.4048 11.063-29.6284C11.063-28.3398 12.0366-27.3428 13.4614-27.3428L35.1914-27.3428L23.6816 2.68408C22.3394 6.23438 26.0615 8.11574 28.3184 5.21046ZM30.3814-3.98878L42.9678-32.3989L19.4995-32.3989L45.4619-66.5727L44.5137-67.105L31.9609-38.6948L55.3804-38.6948L29.4331-4.52101Z"/>
  </g>
  <g id="Thin-S" transform="matrix(1 0 0 1 819.619 696)">
   <path d="M26.6367 4.02931L60.8809-39.6543C61.3535-40.2305 61.6035-40.709 61.6035-41.2852C61.6035-41.9531 61.1289-42.5899 60.166-42.5899L38.1406-42.5899L49.9258-73.5176C50.8262-75.8867 48.4668-77.0274 46.9355-75.1231L12.7266-31.4395C12.2539-30.8633 12.0039-30.3848 12.0039-29.8086C12.0039-29.1406 12.457-28.5039 13.4414-28.5039L35.4316-28.5039L23.6816 2.42383C22.7598 4.79299 25.1406 5.93362 26.6367 4.02931ZM28.1992-1.96682L40.125-31.6582L17.1973-31.6582L45.9824-68.7949L45.3945-69.1269L33.4824-39.4355L56.3613-39.4355L27.6114-2.29886Z"/>
  </g>
  <g id="Ultralight-S" transform="matrix(1 0 0 1 523.246 696)">
   <path d="M25.7754 3.42434L59.8247-39.8696C60.2359-40.3433 60.4449-40.7192 60.4449-41.1929C60.4449-41.543 60.2163-41.9951 59.4995-41.9951L37.3306-41.9951L49.249-73.3843C49.9136-75.1485 48.2617-75.9097 47.1099-74.5181L13.1059-31.2241C12.6948-30.7505 12.4858-30.3745 12.4858-29.9009C12.4858-29.5508 12.6724-29.0986 13.4312-29.0986L35.5547-29.0986L23.6816 2.29053C22.9751 4.05471 24.669 4.81596 25.7754 3.42434ZM27.0816-0.931188L38.669-31.2788L16.0181-31.2788L46.249-69.9331L45.8457-70.1626L34.2617-39.8149L56.8638-39.8149L26.6783-1.16068Z"/>
  </g>
 </g>
</svg>
