<?xml version="1.0" encoding="UTF-8"?>
<!--Generator: Apple Native CoreSVG 341-->
<!DOCTYPE svg
PUBLIC "-//W3C//DTD SVG 1.1//EN"
       "http://www.w3.org/Graphics/SVG/1.1/DTD/svg11.dtd">
<svg version="1.1" xmlns="http://www.w3.org/2000/svg" xmlns:xlink="http://www.w3.org/1999/xlink" viewBox="0 0 3300 2200">
 <g id="Notes">
  <rect height="2200" id="artboard" style="fill:white;opacity:1" width="3300" x="0" y="0"/>
  <line style="fill:none;stroke:black;opacity:1;stroke-width:0.5;" x1="263" x2="3036" y1="292" y2="292"/>
  <text style="stroke:none;fill:black;font-family:sans-serif;font-size:13;font-weight:bold;" transform="matrix(1 0 0 1 263 322)">Weight/Scale Variations</text>
  <text style="stroke:none;fill:black;font-family:sans-serif;font-size:13;text-anchor:middle;" transform="matrix(1 0 0 1 559.711 322)">Ultralight</text>
  <text style="stroke:none;fill:black;font-family:sans-serif;font-size:13;text-anchor:middle;" transform="matrix(1 0 0 1 856.422 322)">Thin</text>
  <text style="stroke:none;fill:black;font-family:sans-serif;font-size:13;text-anchor:middle;" transform="matrix(1 0 0 1 1153.13 322)">Light</text>
  <text style="stroke:none;fill:black;font-family:sans-serif;font-size:13;text-anchor:middle;" transform="matrix(1 0 0 1 1449.84 322)">Regular</text>
  <text style="stroke:none;fill:black;font-family:sans-serif;font-size:13;text-anchor:middle;" transform="matrix(1 0 0 1 1746.56 322)">Medium</text>
  <text style="stroke:none;fill:black;font-family:sans-serif;font-size:13;text-anchor:middle;" transform="matrix(1 0 0 1 2043.27 322)">Semibold</text>
  <text style="stroke:none;fill:black;font-family:sans-serif;font-size:13;text-anchor:middle;" transform="matrix(1 0 0 1 2339.98 322)">Bold</text>
  <text style="stroke:none;fill:black;font-family:sans-serif;font-size:13;text-anchor:middle;" transform="matrix(1 0 0 1 2636.69 322)">Heavy</text>
  <text style="stroke:none;fill:black;font-family:sans-serif;font-size:13;text-anchor:middle;" transform="matrix(1 0 0 1 2933.4 322)">Black</text>
  <line style="fill:none;stroke:black;opacity:1;stroke-width:0.5;" x1="263" x2="3036" y1="1903" y2="1903"/>
  <g transform="matrix(0.2 0 0 0.2 263 1933)">
   <path d="m46.2402 4.15039c21.7773 0 39.4531-17.627 39.4531-39.4043s-17.6758-39.4043-39.4531-39.4043c-21.7285 0-39.4043 17.627-39.4043 39.4043s17.6758 39.4043 39.4043 39.4043Zm0-7.42188c-17.6758 0-31.9336-14.3066-31.9336-31.9824s14.2578-31.9824 31.9336-31.9824 31.9824 14.3066 31.9824 31.9824-14.3066 31.9824-31.9824 31.9824Zm3.61328-17.7734v-28.4668c0-2.24609-1.46484-3.75977-3.71094-3.75977-2.14844 0-3.61328 1.51367-3.61328 3.75977v28.4668c0 2.19727 1.46484 3.71094 3.61328 3.71094 2.24609 0 3.71094-1.51367 3.71094-3.71094Zm-17.8223-10.5957h28.418c2.19727 0 3.71094-1.46484 3.71094-3.61328 0-2.19727-1.51367-3.71094-3.71094-3.71094h-28.418c-2.24609 0-3.75977 1.51367-3.75977 3.71094 0 2.14844 1.51367 3.61328 3.75977 3.61328Z"/>
  </g>
  <g transform="matrix(0.2 0 0 0.2 281.506 1933)">
   <path d="m58.5449 14.5508c27.4902 0 49.8047-22.3145 49.8047-49.8047s-22.3145-49.8047-49.8047-49.8047-49.8047 22.3145-49.8047 49.8047 22.3145 49.8047 49.8047 49.8047Zm0-8.30078c-22.9492 0-41.5039-18.5547-41.5039-41.5039s18.5547-41.5039 41.5039-41.5039 41.5039 18.5547 41.5039 41.5039-18.5547 41.5039-41.5039 41.5039Zm4.05273-23.0957v-36.9141c0-2.49023-1.70898-4.19922-4.15039-4.19922-2.39258 0-4.05273 1.70898-4.05273 4.19922v36.9141c0 2.44141 1.66016 4.15039 4.05273 4.15039 2.44141 0 4.15039-1.66016 4.15039-4.15039Zm-22.5586-14.4043h36.9629c2.44141 0 4.15039-1.61133 4.15039-4.00391 0-2.44141-1.70898-4.15039-4.15039-4.15039h-36.9629c-2.49023 0-4.15039 1.70898-4.15039 4.15039 0 2.39258 1.66016 4.00391 4.15039 4.00391Z"/>
  </g>
  <g transform="matrix(0.2 0 0 0.2 304.924 1933)">
   <path d="m74.8535 28.3203c35.1074 0 63.623-28.4668 63.623-63.5742s-28.5156-63.623-63.623-63.623-63.5742 28.5156-63.5742 63.623 28.4668 63.5742 63.5742 63.5742Zm0-9.08203c-30.127 0-54.4922-24.3652-54.4922-54.4922s24.3652-54.4922 54.4922-54.4922 54.4922 24.3652 54.4922 54.4922-24.3652 54.4922-54.4922 54.4922Zm4.44336-30.3223v-48.4863c0-2.73438-1.85547-4.63867-4.54102-4.63867-2.58789 0-4.44336 1.9043-4.44336 4.63867v48.4863c0 2.68555 1.85547 4.58984 4.44336 4.58984 2.68555 0 4.54102-1.85547 4.54102-4.58984Zm-28.7109-19.7754h48.4863c2.68555 0 4.58984-1.80664 4.58984-4.39453 0-2.73438-1.85547-4.58984-4.58984-4.58984h-48.4863c-2.73438 0-4.58984 1.85547-4.58984 4.58984 0 2.58789 1.85547 4.39453 4.58984 4.39453Z"/>
  </g>
  <text style="stroke:none;fill:black;font-family:sans-serif;font-size:13;font-weight:bold;" transform="matrix(1 0 0 1 263 1953)">Design Variations</text>
  <text style="stroke:none;fill:black;font-family:sans-serif;font-size:13;" transform="matrix(1 0 0 1 263 1971)">Symbols are supported in up to nine weights and three scales.</text>
  <text style="stroke:none;fill:black;font-family:sans-serif;font-size:13;" transform="matrix(1 0 0 1 263 1989)">For optimal layout with text and other symbols, vertically align</text>
  <text style="stroke:none;fill:black;font-family:sans-serif;font-size:13;" transform="matrix(1 0 0 1 263 2007)">symbols with the adjacent text.</text>
  <line style="fill:none;stroke:#00AEEF;stroke-width:0.5;opacity:1.0;" x1="776" x2="776" y1="1919" y2="1933"/>
  <g transform="matrix(0.2 0 0 0.2 776 1933)">
   <path d="m16.5527 0.78125c2.58789 0 3.85742-0.976562 4.78516-3.71094l20.5566-57.5195h0.244141l20.6055 57.5195c0.927734 2.73438 2.19727 3.71094 4.73633 3.71094 2.58789 0 4.24805-1.5625 4.24805-4.00391 0-0.830078-0.146484-1.61133-0.537109-2.63672l-22.9004-60.9863c-1.12305-2.97852-3.125-4.49219-6.25-4.49219-3.02734 0-5.07812 1.46484-6.15234 4.44336l-22.9004 61.084c-0.390625 1.02539-0.537109 1.80664-0.537109 2.63672 0 2.44141 1.5625 3.95508 4.10156 3.95508Zm10.2051-20.9473h30.6641c2.00195 0 3.66211-1.66016 3.66211-3.66211 0-2.05078-1.66016-3.66211-3.66211-3.66211h-30.6641c-2.00195 0-3.66211 1.61133-3.66211 3.66211 0 2.00195 1.66016 3.66211 3.66211 3.66211Z"/>
  </g>
  <line style="fill:none;stroke:#00AEEF;stroke-width:0.5;opacity:1.0;" x1="792.836" x2="792.836" y1="1919" y2="1933"/>
  <text style="stroke:none;fill:black;font-family:sans-serif;font-size:13;font-weight:bold;" transform="matrix(1 0 0 1 776 1953)">Margins</text>
  <text style="stroke:none;fill:black;font-family:sans-serif;font-size:13;" transform="matrix(1 0 0 1 776 1971)">Leading and trailing margins on the left and right side of each symbol</text>
  <text style="stroke:none;fill:black;font-family:sans-serif;font-size:13;" transform="matrix(1 0 0 1 776 1989)">can be adjusted by modifying the x-location of the margin guidelines.</text>
  <text style="stroke:none;fill:black;font-family:sans-serif;font-size:13;" transform="matrix(1 0 0 1 776 2007)">Modifications are automatically applied proportionally to all</text>
  <text style="stroke:none;fill:black;font-family:sans-serif;font-size:13;" transform="matrix(1 0 0 1 776 2025)">scales and weights.</text>
  <g transform="matrix(0.2 0 0 0.2 1289 1933)">
   <path d="m14.209 13.1348 7.86133 7.86133c4.29688 4.39453 9.32617 4.10156 13.8672-1.02539l60.6934-68.2129-4.88281-4.88281-60.2539 67.6758c-1.80664 1.95312-3.4668 2.44141-5.81055 0.0976562l-5.17578-5.12695c-2.29492-2.29492-1.80664-3.95508 0.195312-5.81055l67.4805-62.1582-4.88281-4.83398-68.0664 62.5977c-4.98047 4.58984-5.32227 9.47266-1.02539 13.8184Zm44.873-97.4609c-2.05078 2.00195-2.24609 4.88281-1.07422 6.78711 1.12305 1.80664 3.4668 3.02734 6.5918 2.24609 5.85938-1.66016 12.5977-2.39258 18.8965 0.927734l-2.68555 7.12891c-1.61133 4.00391-0.732422 6.88477 1.70898 9.42383l10.2539 10.3027c2.34375 2.39258 4.54102 2.44141 7.08008 1.95312l4.44336-0.732422 2.58789 2.53906-0.195312 2.24609c-0.0976562 2.29492 0.537109 4.29688 2.7832 6.49414l3.36914 3.32031c2.29492 2.29492 5.51758 2.49023 7.8125 0.195312l12.9883-13.0371c2.29492-2.34375 2.14844-5.37109-0.195312-7.66602l-3.41797-3.41797c-2.19727-2.19727-4.05273-3.02734-6.34766-2.88086l-2.34375 0.244141-2.44141-2.44141 1.02539-4.6875c0.634766-2.73438-0.244141-4.98047-2.88086-7.61719l-11.2793-11.1816c-12.9395-12.8418-35.5957-11.0352-46.6797-0.146484Zm7.08008 2.05078c8.78906-6.39648 25.9766-5.66406 33.6914 1.95312l12.3047 12.207c1.02539 1.02539 1.2207 1.80664 0.927734 3.32031l-1.46484 6.64062 6.73828 6.68945 4.39453-0.244141c1.12305-0.0488281 1.51367 0.0488281 2.34375 0.878906l2.53906 2.49023-10.8398 10.8398-2.49023-2.49023c-0.830078-0.878906-0.976562-1.2207-0.927734-2.39258l0.292969-4.3457-6.68945-6.73828-6.83594 1.17188c-1.41602 0.292969-2.05078 0.195312-3.17383-0.878906l-8.93555-8.88672c-1.07422-1.02539-1.17188-1.70898-0.488281-3.36914l4.58984-11.4746c-6.10352-6.34766-17.041-7.51953-25.5859-4.58984-0.683594 0.244141-0.927734-0.390625-0.390625-0.78125Z"/>
  </g>
  <text style="stroke:none;fill:black;font-family:sans-serif;font-size:13;font-weight:bold;" transform="matrix(1 0 0 1 1289 1953)">Exporting</text>
  <text style="stroke:none;fill:black;font-family:sans-serif;font-size:13;" transform="matrix(1 0 0 1 1289 1971)">Symbols should be outlined when exporting to ensure the</text>
  <text style="stroke:none;fill:black;font-family:sans-serif;font-size:13;" transform="matrix(1 0 0 1 1289 1989)">design is preserved when submitting to Xcode.</text>
  <text id="template-version" style="stroke:none;fill:black;font-family:sans-serif;font-size:13;text-anchor:end;" transform="matrix(1 0 0 1 3036 1933)">Template v.2.0</text>
  <text style="stroke:none;fill:black;font-family:sans-serif;font-size:13;text-anchor:end;" transform="matrix(1 0 0 1 3036 1951)">Requires Xcode 12 or greater</text>
  <text id="descriptive-name" style="stroke:none;fill:black;font-family:sans-serif;font-size:13;text-anchor:end;" transform="matrix(1 0 0 1 3036 1969)">Generated from lightbulb.max.fill</text>
  <text style="stroke:none;fill:black;font-family:sans-serif;font-size:13;text-anchor:end;" transform="matrix(1 0 0 1 3036 1987)">Typeset at 100.0 points</text>
  <text style="stroke:none;fill:black;font-family:sans-serif;font-size:13;" transform="matrix(1 0 0 1 263 726)">Small</text>
  <text style="stroke:none;fill:black;font-family:sans-serif;font-size:13;" transform="matrix(1 0 0 1 263 1156)">Medium</text>
  <text style="stroke:none;fill:black;font-family:sans-serif;font-size:13;" transform="matrix(1 0 0 1 263 1586)">Large</text>
 </g>
 <g id="Guides">
  <g id="H-reference" style="fill:#27AAE1;stroke:none;" transform="matrix(1 0 0 1 339 696)">
   <path d="M0.993654 0L3.63775 0L29.3281-67.1323L30.0303-67.1323L30.0303-70.459L28.1226-70.459ZM11.6885-24.4799L46.9815-24.4799L46.2315-26.7285L12.4385-26.7285ZM55.1196 0L57.7637 0L30.6382-70.459L29.4326-70.459L29.4326-67.1323Z"/>
  </g>
  <line id="Baseline-S" style="fill:none;stroke:#27AAE1;opacity:1;stroke-width:0.5;" x1="263" x2="3036" y1="696" y2="696"/>
  <line id="Capline-S" style="fill:none;stroke:#27AAE1;opacity:1;stroke-width:0.5;" x1="263" x2="3036" y1="625.541" y2="625.541"/>
  <g id="H-reference" style="fill:#27AAE1;stroke:none;" transform="matrix(1 0 0 1 339 1126)">
   <path d="M0.993654 0L3.63775 0L29.3281-67.1323L30.0303-67.1323L30.0303-70.459L28.1226-70.459ZM11.6885-24.4799L46.9815-24.4799L46.2315-26.7285L12.4385-26.7285ZM55.1196 0L57.7637 0L30.6382-70.459L29.4326-70.459L29.4326-67.1323Z"/>
  </g>
  <line id="Baseline-M" style="fill:none;stroke:#27AAE1;opacity:1;stroke-width:0.5;" x1="263" x2="3036" y1="1126" y2="1126"/>
  <line id="Capline-M" style="fill:none;stroke:#27AAE1;opacity:1;stroke-width:0.5;" x1="263" x2="3036" y1="1055.54" y2="1055.54"/>
  <g id="H-reference" style="fill:#27AAE1;stroke:none;" transform="matrix(1 0 0 1 339 1556)">
   <path d="M0.993654 0L3.63775 0L29.3281-67.1323L30.0303-67.1323L30.0303-70.459L28.1226-70.459ZM11.6885-24.4799L46.9815-24.4799L46.2315-26.7285L12.4385-26.7285ZM55.1196 0L57.7637 0L30.6382-70.459L29.4326-70.459L29.4326-67.1323Z"/>
  </g>
  <line id="Baseline-L" style="fill:none;stroke:#27AAE1;opacity:1;stroke-width:0.5;" x1="263" x2="3036" y1="1556" y2="1556"/>
  <line id="Capline-L" style="fill:none;stroke:#27AAE1;opacity:1;stroke-width:0.5;" x1="263" x2="3036" y1="1485.54" y2="1485.54"/>
  <line id="right-margin" style="fill:none;stroke:#00AEEF;stroke-width:0.5;opacity:1.0;" x1="1520.05" x2="1520.05" y1="1030.79" y2="1150.12"/>
  <line id="left-margin" style="fill:none;stroke:#00AEEF;stroke-width:0.5;opacity:1.0;" x1="1379.64" x2="1379.64" y1="1030.79" y2="1150.12"/>
 </g>
 <g id="Symbols">
  <g id="Black-L" transform="matrix(1 0 0 1 2831.7 1556)">
   <path d="M37.8033-60.1156C42.8353-60.1156 47.1814-64.301 47.1814-69.3925C47.1814-74.5049 42.8353-78.6915 37.8033-78.6915L25.3609-78.6915C20.3277-78.6915 16.084-74.4257 16.084-69.3925C16.084-64.3594 20.3277-60.1156 25.3609-60.1156ZM49.3879-108.608C52.9984-104.996 58.8805-104.917 62.4945-108.608C66.1657-112.24 66.0865-118.102 62.4945-121.695L53.6777-130.532C50.0869-134.146 44.184-134.146 40.5711-130.532C36.9595-126.9 36.9595-121.04 40.5711-117.426ZM92.4341-133.3C92.4341-128.247 96.5974-123.944 101.711-123.944C106.823-123.944 111.01-128.247 111.01-133.3L111.01-145.743C111.01-150.776 106.744-155.021 101.711-155.021C96.6558-155.021 92.4341-150.776 92.4341-145.743ZM140.926-121.695C137.312-118.102 137.233-112.24 140.926-108.608C144.559-104.916 150.421-104.995 154.012-108.608L162.85-117.426C166.464-121.04 166.464-126.9 162.85-130.532C159.217-134.146 153.357-134.146 149.743-130.532ZM178.04-60.1156C183.072-60.1156 187.318-64.3594 187.318-69.3925C187.318-74.4257 183.072-78.6915 178.04-78.6915L165.598-78.6915C160.545-78.6915 156.242-74.5049 156.242-69.3925C156.242-64.301 160.545-60.1156 165.598-60.1156ZM101.711-115.46C78.64-115.46 59.6097-98.9302 59.6097-76.3526C59.6097-54.7644 71.7898-46.1996 74.5879-11.7813C74.9448-6.57596 78.4438-3.44418 83.5967-3.44418L119.824-3.44418C124.898-3.44418 128.397-6.57596 128.87-11.7813C131.611-46.1996 143.889-54.7644 143.889-76.2942C143.889-98.8718 124.76-115.46 101.711-115.46ZM82.3561 13.2993L121.067 13.2993C124.044 13.2993 126.387 10.8024 126.387 8.05895C126.387 5.23629 124.044 2.81977 121.067 2.81977L82.3561 2.81977C79.3594 2.81977 77.0585 5.23629 77.0585 8.05895C77.0585 10.8024 79.3594 13.2993 82.3561 13.2993ZM101.712 32.062C111.909 32.062 119.381 27.0711 119.802 19.5425L83.3871 19.5425C83.8464 27.0711 91.4741 32.062 101.712 32.062Z" data-clipstroke-keyframes="0 0 0 0.3470828 0.0049171923 0 1 0.50591093 0.8554382 0 0 1.3464438 1.9953599 0 1 1.5058885 1.8533676 0 0 2.3489747 2.9981503 0 1 2.5057797 2.8554237 0 0 3.3480046 3.996149 0 1 3.5071068 3.8545318 0 0 4.5020237 4.852857 0 1 4.9955907 4.345202"/>
  </g>
  <g id="Heavy-L" transform="matrix(1 0 0 1 2537.83 1556)">
   <path d="M36.7733-61.4504C41.2597-61.4504 45.1603-65.1901 45.1603-69.7268C45.1603-74.2937 41.2597-78.039 36.7733-78.039L24.3604-78.039C19.8683-78.039 16.084-74.2189 16.084-69.7268C16.084-65.2348 19.8683-61.4504 24.3604-61.4504ZM48.67-108.226C51.8849-105.005 57.135-104.93 60.3668-108.226C63.6376-111.476 63.5628-116.696 60.3668-119.898L51.5774-128.717C48.387-131.949 43.1068-131.949 39.8806-128.717C36.66-125.467 36.66-120.252 39.8806-117.021ZM90.5947-131.825C90.5947-127.308 94.2986-123.474 98.8711-123.474C103.438-123.474 107.183-127.308 107.183-131.825L107.183-144.238C107.183-148.73 103.363-152.52 98.8711-152.52C94.3433-152.52 90.5947-148.73 90.5947-144.238ZM137.37-119.898C134.138-116.696 134.063-111.476 137.37-108.226C140.621-104.925 145.846-104.999 149.037-108.226L157.856-117.021C161.088-120.252 161.088-125.467 157.856-128.717C154.605-131.949 149.391-131.949 146.159-128.717ZM173.352-61.4504C177.838-61.4504 181.634-65.2348 181.634-69.7268C181.634-74.2189 177.838-78.039 173.352-78.039L160.939-78.039C156.422-78.039 152.588-74.2937 152.588-69.7268C152.588-65.1901 156.422-61.4504 160.939-61.4504ZM98.8711-114.235C76.0242-114.235 57.3988-97.8003 57.3988-75.7567C57.3988-53.956 69.903-46.0516 72.9094-10.4384C73.2343-5.93441 76.183-3.2377 80.6704-3.2377L117.066-3.2377C121.479-3.2377 124.428-5.93441 124.842-10.4384C127.809-46.0516 140.407-53.956 140.407-75.7121C140.407-97.7557 121.682-114.235 98.8711-114.235ZM79.7078 12.5269L118.04 12.5269C120.78 12.5269 122.945 10.2582 122.945 7.69679C122.945 5.06055 120.78 2.87234 118.04 2.87234L79.7078 2.87234C76.9433 2.87234 74.8387 5.06055 74.8387 7.69679C74.8387 10.2582 76.9433 12.5269 79.7078 12.5269ZM98.8768 30.8818C108.836 30.8818 116.363 25.9677 116.789 18.6067L80.7802 18.6067C81.2213 25.9677 88.8576 30.8818 98.8768 30.8818Z" data-clipstroke-keyframes="0 0 0 0.3362217 0.004419243 0 1 0.50555587 0.84278804 0 0 1.3336259 1.9957117 0 1 1.5041312 1.8404201 0 0 2.3374228 2.9986596 0 1 2.5052767 2.842767 0 0 3.3335912 3.9972136 0 1 3.5041234 3.841929 0 0 4.502075 4.840657 0 1 4.9965405 4.3341928"/>
  </g>
  <g id="Bold-L" transform="matrix(1 0 0 1 2244.71 1556)">
   <path d="M35.5648-63.1845C39.3527-63.1845 42.6851-66.3561 42.6851-70.1865C42.6851-74.0548 39.3527-77.2396 35.5648-77.2396L23.0859-77.2396C19.2848-77.2396 16.084-73.9876 16.084-70.1865C16.084-66.3853 19.2848-63.1845 23.0859-63.1845ZM47.816-107.742C50.5243-105.02 54.9683-104.953 57.7163-107.742C60.4803-110.501 60.4131-114.907 57.7163-117.617L48.8907-126.481C46.2071-129.229 41.7251-129.229 38.9903-126.481C36.2688-123.721 36.2688-119.329 38.9903-116.581ZM88.2829-129.907C88.2829-126.081 91.4033-122.837 95.2849-122.837C99.1532-122.837 102.338-126.081 102.338-129.907L102.338-142.385C102.338-146.187 99.086-149.401 95.2849-149.401C91.4325-149.401 88.2829-146.187 88.2829-142.385ZM132.84-117.617C130.092-114.907 130.025-110.501 132.84-107.742C135.6-104.94 140.019-105.007 142.703-107.742L151.566-116.581C154.314-119.329 154.314-123.721 151.566-126.481C148.807-129.229 144.414-129.229 141.666-126.481ZM167.446-63.1845C171.234-63.1845 174.461-66.3853 174.461-70.1865C174.461-73.9876 171.234-77.2396 167.446-77.2396L154.967-77.2396C151.141-77.2396 147.898-74.0548 147.898-70.1865C147.898-66.3561 151.141-63.1845 154.967-63.1845ZM95.2849-112.773C72.7742-112.773 54.6632-96.4614 54.6632-75.1383C54.6632-53.2551 67.4925-46.0386 70.7079-9.02446C70.9944-5.32918 73.3114-3.14056 77.0437-3.14056L113.513-3.14056C117.178-3.14056 119.495-5.32918 119.84-9.02446C123.039-46.0386 135.947-53.2551 135.947-75.1091C135.947-96.4322 117.744-112.773 95.2849-112.773ZM76.4267 11.3951L114.156 11.3951C116.604 11.3951 118.546 9.40325 118.546 7.07218C118.546 4.67392 116.604 2.76252 114.156 2.76252L76.4267 2.76252C73.9541 2.76252 72.0879 4.67392 72.0879 7.07218C72.0879 9.40325 73.9541 11.3951 76.4267 11.3951ZM95.2981 29.2057C104.972 29.2057 112.494 24.3988 112.921 17.2602L77.5454 17.2602C77.9635 24.3988 85.548 29.2057 95.2981 29.2057Z" data-clipstroke-keyframes="0 0 0 0.31806433 0.0038942373 0 1 0.5052008 0.82274264 0 0 1.3153576 1.9960194 0 1 1.5035832 1.8203847 0 0 2.3184447 2.9989343 0 1 2.5046825 2.8227162 0 0 3.3154569 3.9985552 0 1 3.503669 3.8229961 0 0 4.502199 4.8212004 0 1 4.997373 4.3159103"/>
  </g>
  <g id="Semibold-L" transform="matrix(1 0 0 1 1950.47 1556)">
   <path d="M34.7317-64.38C38.038-64.38 40.9788-67.1599 40.9788-70.5033C40.9788-73.8901 38.038-76.6885 34.7317-76.6885L22.2074-76.6885C18.8825-76.6885 16.084-73.8282 16.084-70.5033C16.084-67.1785 18.8825-64.38 22.2074-64.38ZM47.2272-107.408C49.5863-105.031 53.4745-104.969 55.8891-107.408C58.3037-109.829 58.2417-113.674 55.8891-116.045L47.0385-124.939C44.7043-127.354 40.7726-127.354 38.3766-124.939C35.999-122.518 35.999-118.692 38.3766-116.277ZM86.6892-128.584C86.6892-125.234 89.4072-122.399 92.8125-122.399C96.1993-122.399 98.9977-125.234 98.9977-128.584L98.9977-141.108C98.9977-144.433 96.1374-147.25 92.8125-147.25C89.4258-147.25 86.6892-144.433 86.6892-141.108ZM129.717-116.045C127.303-113.674 127.241-109.829 129.717-107.408C132.138-104.95 136.002-105.012 138.336-107.408L147.23-116.277C149.644-118.692 149.644-122.518 147.23-124.939C144.809-127.354 140.983-127.354 138.568-124.939ZM163.374-64.38C166.681-64.38 169.516-67.1785 169.516-70.5033C169.516-73.8282 166.681-76.6885 163.374-76.6885L150.85-76.6885C147.5-76.6885 144.665-73.8901 144.665-70.5033C144.665-67.1599 147.5-64.38 150.85-64.38ZM92.8125-111.765C70.5336-111.765 52.7773-95.5384 52.7773-74.7119C52.7773-52.7719 65.8307-46.0296 69.1902-8.04971C69.4502-4.91193 71.3318-3.0736 74.5434-3.0736L111.063-3.0736C114.213-3.0736 116.094-4.91193 116.392-8.04971C119.751-46.0296 132.873-52.7719 132.873-74.6933C132.873-95.5198 115.03-111.765 92.8125-111.765ZM74.1648 10.6148L111.479 10.6148C113.725 10.6148 115.514 8.81384 115.514 6.64158C115.514 4.40739 113.725 2.68681 111.479 2.68681L74.1648 2.68681C71.8934 2.68681 70.1915 4.40739 70.1915 6.64158C70.1915 8.81384 71.8934 10.6148 74.1648 10.6148ZM92.831 28.0502C102.309 28.0502 109.827 23.3172 110.254 16.3319L75.3154 16.3319C75.7176 23.3172 83.2663 28.0502 92.831 28.0502Z" data-clipstroke-keyframes="0 0 0 0.3010674 0.0034994467 0 1 0.50493807 0.80437386 0 0 1.3000051 1.9962801 0 1 1.50318 1.8037063 0 0 2.300857 2.9990842 0 1 2.504216 2.8043354 0 0 3.3002267 3.9995797 0 1 3.5033212 3.80725 0 0 4.502247 4.8033104 0 1 4.997985 4.298815"/>
  </g>
  <g id="Medium-L" transform="matrix(1 0 0 1 1655.63 1556)">
   <path d="M34.1-65.2864C37.0412-65.2864 39.685-67.7694 39.685-70.7436C39.685-73.7652 37.0412-76.2707 34.1-76.2707L21.5412-76.2707C18.5775-76.2707 16.084-73.7073 16.084-70.7436C16.084-67.7799 18.5775-65.2864 21.5412-65.2864ZM46.7808-107.155C48.875-105.039 52.3419-104.981 54.5036-107.155C56.6533-109.32 56.5953-112.739 54.5036-114.853L45.634-123.77C43.5648-125.932 40.0504-125.932 37.9112-123.77C35.7945-121.606 35.7945-118.209 37.9112-116.047ZM85.4807-127.582C85.4807-124.593 87.8938-122.066 90.9379-122.066C93.9595-122.066 96.465-124.593 96.465-127.582L96.465-140.14C96.465-143.104 93.9016-145.62 90.9379-145.62C87.9043-145.62 85.4807-143.104 85.4807-140.14ZM127.35-114.853C125.188-112.739 125.13-109.32 127.35-107.155C129.514-104.958 132.956-105.016 135.025-107.155L143.942-116.047C146.104-118.209 146.104-121.606 143.942-123.77C141.778-125.932 138.381-125.932 136.219-123.77ZM160.287-65.2864C163.228-65.2864 165.767-67.7799 165.767-70.7436C165.767-73.7073 163.228-76.2707 160.287-76.2707L147.728-76.2707C144.74-76.2707 142.213-73.7652 142.213-70.7436C142.213-67.7694 144.74-65.2864 147.728-65.2864ZM90.9379-111.001C68.8348-111.001 51.3473-94.8385 51.3473-74.3886C51.3473-52.4055 64.5707-46.0229 68.0395-7.31062C68.2793-4.59556 69.8307-3.02282 72.6476-3.02282L109.206-3.02282C111.965-3.02282 113.516-4.59556 113.777-7.31062C117.258-46.0229 130.541-52.4055 130.541-74.3781C130.541-94.828 112.971-111.001 90.9379-111.001ZM72.4497 10.0232L109.448 10.0232C111.542 10.0232 113.215 8.36692 113.215 6.31508C113.215 4.20528 111.542 2.62941 109.448 2.62941L72.4497 2.62941C70.3309 2.62941 68.7535 4.20528 68.7535 6.31508C68.7535 8.36692 70.3309 10.0232 72.4497 10.0232ZM90.9603 27.1741C100.29 27.1741 107.805 22.497 108.232 15.628L73.6245 15.628C74.0146 22.497 81.5363 27.1741 90.9603 27.1741Z" data-clipstroke-keyframes="0 0 0 0.28750348 0.0032065911 0 1 0.5047609 0.78967154 0 0 1.2864288 1.9965119 0 1 1.5028565 1.789049 0 0 2.2868524 2.99921 0 1 2.5038662 2.789626 0 0 3.286766 3.000426 0 1 3.503033 3.7934222 0 0 4.502262 4.789041 0 1 4.998532 4.2851477"/>
  </g>
  <g id="Regular-L" transform="matrix(1 0 0 1 1361.36 1556)">
   <path d="M33.276-66.4687C35.741-66.4687 37.9974-68.5643 37.9974-71.057C37.9974-73.6023 35.741-75.7256 33.276-75.7256L20.6722-75.7256C18.1796-75.7256 16.084-73.5496 16.084-71.057C16.084-68.5643 18.1796-66.4687 20.6722-66.4687ZM46.1985-106.826C47.9473-105.049 50.8646-104.996 52.6964-106.826C54.5006-108.655 54.4478-111.519 52.6964-113.298L43.8022-122.245C42.0784-124.077 39.1084-124.077 37.3042-122.245C35.5278-120.416 35.5278-117.579 37.3042-115.747ZM83.9045-126.274C83.9045-123.756 85.9197-121.633 88.4927-121.633C91.0381-121.633 93.1614-123.756 93.1614-126.274L93.1614-138.877C93.1614-141.37 90.9853-143.493 88.4927-143.493C85.9197-143.493 83.9045-141.37 83.9045-138.877ZM124.261-113.298C122.43-111.519 122.377-108.655 124.261-106.826C126.091-104.969 128.983-105.021 130.706-106.826L139.653-115.747C141.485-117.579 141.485-120.416 139.653-122.245C137.824-124.077 134.987-124.077 133.156-122.245ZM156.26-66.4687C158.725-66.4687 160.876-68.5643 160.876-71.057C160.876-73.5496 158.725-75.7256 156.26-75.7256L143.657-75.7256C141.139-75.7256 139.016-73.6023 139.016-71.057C139.016-68.5643 141.139-66.4687 143.657-66.4687ZM88.4927-110.005C66.6189-110.005 49.4822-93.9256 49.4822-73.967C49.4822-51.9276 62.9272-46.014 66.5385-6.34658C66.7521-4.18289 67.8728-2.95659 70.1748-2.95659L106.783-2.95659C109.032-2.95659 110.153-4.18289 110.367-6.34658C114.005-46.014 127.501-51.9276 127.501-73.967C127.501-93.9256 110.286-110.005 88.4927-110.005ZM70.2127 9.25155L106.8 9.25155C108.695 9.25155 110.215 7.78398 110.215 5.88921C110.215 3.94167 108.695 2.55453 106.8 2.55453L70.2127 2.55453C68.2928 2.55453 66.878 3.94167 66.878 5.88921C66.878 7.78398 68.2928 9.25155 70.2127 9.25155ZM88.5204 26.0313C97.6555 26.0313 105.167 21.4273 105.594 14.7099L71.419 14.7099C71.7934 21.4273 79.2797 26.0313 88.5204 26.0313Z" data-clipstroke-keyframes="0 0 0 0.26662824 0.002809905 0 1 0.504536 0.7671951 0 0 1.265529 1.9968704 0 1 1.5024052 1.7666147 0 0 2.265392 2.9993591 0 1 2.5033789 2.7671368 0 0 3.2660577 3.001645 0 1 3.5026174 3.772275 0 0 4.502243 4.767223 0 1 4.9993305 4.264106"/>
  </g>
  <g id="Light-L" transform="matrix(1 0 0 1 1067.55 1556)">
   <path d="M32.8752-68.1864C34.7104-68.1864 36.4706-69.7858 36.4706-71.6677C36.4706-73.5833 34.7104-75.2294 32.8752-75.2294L19.5653-75.2294C17.6834-75.2294 16.084-73.5496 16.084-71.6677C16.084-69.7858 17.6834-68.1864 19.5653-68.1864ZM45.8359-106.425C47.1267-105.087 49.3378-105.054 50.7688-106.425C52.1531-107.796 52.1194-109.973 50.7688-111.371L41.3974-120.776C40.0936-122.207 37.8488-122.207 36.4645-120.776C35.127-119.405 35.127-117.274 36.4645-115.843ZM82.0914-124.365C82.0914-122.496 83.6103-120.85 85.5727-120.85C87.4882-120.85 89.1344-122.496 89.1344-124.365L89.1344-137.675C89.1344-139.557 87.4545-141.203 85.5727-141.203C83.6103-141.203 82.0914-139.557 82.0914-137.675ZM120.33-111.371C118.899-109.973 118.865-107.796 120.33-106.425C121.701-105.007 123.925-105.041 125.229-106.425L134.634-115.843C136.065-117.274 136.065-119.405 134.634-120.776C133.263-122.207 131.132-122.207 129.701-120.776ZM151.546-68.1864C153.381-68.1864 155.074-69.7858 155.074-71.6677C155.074-73.5496 153.381-75.2294 151.546-75.2294L138.236-75.2294C136.368-75.2294 134.721-73.5833 134.721-71.6677C134.721-69.7858 136.368-68.1864 138.236-68.1864ZM85.5727-109.356C64.3096-109.356 47.6118-93.3912 47.6118-74.3105C47.6118-53.3781 60.7897-47.1019 64.2291-6.9764C64.4237-4.98448 65.4299-3.91085 67.6556-3.91085L103.443-3.91085C105.635-3.91085 106.641-4.98448 106.836-6.9764C110.322-47.1019 123.474-53.3781 123.474-74.3105C123.474-93.3912 106.755-109.356 85.5727-109.356ZM67.9415 7.34302L103.251 7.34302C104.954 7.34302 106.303 6.02813 106.303 4.32422C106.303 2.58662 104.954 1.35216 103.251 1.35216L67.9415 1.35216C66.2507 1.35216 64.9695 2.58662 64.9695 4.32422C64.9695 6.02813 66.2507 7.34302 67.9415 7.34302ZM85.6194 23.4929C94.6209 23.4929 101.655 19.0417 102.044 12.5723L69.1478 12.5723C69.5032 19.0417 76.5505 23.4929 85.6194 23.4929Z" data-clipstroke-keyframes="0 0 0 0.22532097 0.0027538356 0 1 0.5043256 0.7282575 0 0 1.226848 1.9952664 0 1 1.5022202 1.7268126 0 0 2.2236962 2.9966722 0 1 2.502686 2.728277 0 0 3.2283769 3.0017323 0 1 3.502952 3.7345834 0 0 4.502758 4.7286034 0 1 4.9966564 4.2235484"/>
  </g>
  <g id="Thin-L" transform="matrix(1 0 0 1 774.68 1556)">
   <path d="M32.3451-70.4582C33.3473-70.4582 34.4513-71.4013 34.4513-72.4754C34.4513-73.558 33.3473-74.5731 32.3451-74.5731L18.1013-74.5731C17.0271-74.5731 16.084-73.5496 16.084-72.4754C16.084-71.4013 17.0271-70.4582 18.1013-70.4582ZM45.3563-105.895C46.0413-105.138 47.3184-105.129 48.2194-105.895C49.0483-106.66 49.0399-107.929 48.2194-108.821L38.217-118.832C37.4684-119.733 36.1828-119.733 35.3539-118.832C34.5969-118.067 34.5969-116.87 35.3539-115.969ZM79.6934-121.841C79.6934-120.83 80.5561-119.815 81.7107-119.815C82.7932-119.815 83.8083-120.83 83.8083-121.841L83.8083-136.085C83.8083-137.159 82.7848-138.174 81.7107-138.174C80.5561-138.174 79.6934-137.159 79.6934-136.085ZM115.13-108.821C114.229-107.929 114.221-106.66 115.13-105.895C115.895-105.057 117.236-105.066 117.985-105.895L127.995-115.969C128.896-116.87 128.896-118.067 127.995-118.832C127.23-119.733 126.033-119.733 125.132-118.832ZM145.312-70.4582C146.314-70.4582 147.401-71.4013 147.401-72.4754C147.401-73.5496 146.314-74.5731 145.312-74.5731L131.068-74.5731C130.057-74.5731 129.042-73.558 129.042-72.4754C129.042-71.4013 130.057-70.4582 131.068-70.4582ZM81.7107-108.497C61.2553-108.497 45.1381-92.6845 45.1381-74.7649C45.1381-55.2965 57.9626-48.5406 61.1749-7.80938C61.3442-6.04463 62.199-5.17294 64.3236-5.17294L99.0257-5.17294C101.142-5.17294 101.997-6.04463 102.166-7.80938C105.45-48.5406 118.148-55.2965 118.148-74.7649C118.148-92.6845 102.086-108.497 81.7107-108.497ZM64.9377 4.81884L98.5556 4.81884C100.007 4.81884 101.128 3.70589 101.128 2.25439C101.128 0.794451 100.007-0.238078 98.5556-0.238078L64.9377-0.238078C63.5498-0.238078 62.4453 0.794451 62.4453 2.25439C62.4453 3.70589 63.5498 4.81884 64.9377 4.81884ZM81.7826 20.1358C90.6075 20.1358 97.0107 15.8864 97.3493 9.74526L66.144 9.74526C66.4742 15.8864 72.9409 20.1358 81.7826 20.1358Z" data-clipstroke-keyframes="0 0 0 0.15397134 0.0022185456 0 1 0.50348353 0.66133267 0 0 1.1524748 1.9921077 0 1 1.502048 1.6497192 0 0 2.151732 2.9922671 0 1 2.5010345 2.661544 0 0 3.1545186 3.0014186 0 1 3.5034995 3.660201 0 0 4.503211 4.6623077 0 1 4.9922547 4.1535163"/>
  </g>
  <g id="Ultralight-L" transform="matrix(1 0 0 1 479.934 1556)">
   <path d="M32.0736-71.6217C32.6491-71.6217 33.417-72.2287 33.417-72.8891C33.417-73.5451 32.6491-74.237 32.0736-74.237L17.3514-74.237C16.691-74.237 16.084-73.5496 16.084-72.8891C16.084-72.2287 16.691-71.6217 17.3514-71.6217ZM45.1106-105.623C45.4853-105.164 46.2841-105.168 46.9136-105.623C47.4581-106.078 47.4626-106.882 46.9136-107.516L36.5879-117.837C36.1238-118.466 35.3295-118.466 34.785-117.837C34.3254-117.382 34.3254-116.663 34.785-116.034ZM78.4651-120.548C78.4651-119.977 78.9917-119.285 79.7326-119.285C80.3885-119.285 81.0804-119.977 81.0804-120.548L81.0804-135.27C81.0804-135.931 80.393-136.623 79.7326-136.623C78.9917-136.623 78.4651-135.931 78.4651-135.27ZM112.467-107.516C111.837-106.882 111.842-106.078 112.467-105.623C112.922-105.083 113.81-105.079 114.274-105.623L124.595-116.034C125.225-116.663 125.225-117.382 124.595-117.837C124.14-118.466 123.422-118.466 122.792-117.837ZM142.118-71.6217C142.694-71.6217 143.471-72.2287 143.471-72.8891C143.471-73.5496 142.694-74.237 142.118-74.237L127.396-74.237C126.825-74.237 126.133-73.5451 126.133-72.8891C126.133-72.2287 126.825-71.6217 127.396-71.6217ZM79.7326-108.058C59.6909-108.058 43.8711-92.3225 43.8711-74.9976C43.8711-56.2791 56.5146-49.2776 59.6105-8.23602C59.7668-6.58764 60.5441-5.81938 62.617-5.81938L96.7632-5.81938C98.8406-5.81938 99.6178-6.58764 99.7742-8.23602C102.955-49.2776 115.42-56.2791 115.42-74.9976C115.42-92.3225 99.6938-108.058 79.7326-108.058ZM63.3992 3.52596L96.1508 3.52596C97.473 3.52596 98.478 2.51644 98.478 1.19423C98.478-0.12349 97.473-1.05259 96.1508-1.05259L63.3992-1.05259C62.1664-1.05259 61.1524-0.12349 61.1524 1.19423C61.1524 2.51644 62.1664 3.52596 63.3992 3.52596ZM79.8175 18.4162C88.5518 18.4162 94.6318 14.2703 94.9445 8.29725L64.6055 8.29725C64.9227 14.2703 71.0921 18.4162 79.8175 18.4162Z" data-clipstroke-keyframes="0 0 0 0.10225561 0.0015781141 0 1 0.50314313 0.6123071 0 0 1.1104538 1.9900701 0 1 1.5016832 1.6060708 0 0 2.0991614 2.989336 0 1 2.4999785 2.6124053 0 0 3.1135058 3.0011034 0 1 3.5037072 3.618658 0 0 4.5033045 4.6141243 0 1 4.989332 4.1025987"/>
  </g>
  <g id="Black-M" transform="matrix(1 0 0 1 2852.56 1126)">
   <path d="M30.1188-53.5954C34.4007-53.5954 38.0836-57.1537 38.0836-61.4925C38.0836-65.8367 34.4007-69.3948 30.1188-69.3948L20.358-69.3948C16.0764-69.3948 12.4609-65.7741 12.4609-61.4925C12.4609-57.2108 16.0764-53.5954 20.358-53.5954ZM38.8308-92.3529C41.9058-89.2782 46.9105-89.2157 49.9846-92.3529C53.1161-95.4331 53.0535-100.432 49.9846-103.501L43.0656-110.425C39.9964-113.499 34.9863-113.499 31.9119-110.425C28.8372-107.345 28.8372-102.346 31.9119-99.2716ZM72.9477-112.218C72.9477-107.931 76.5008-104.259 80.8447-104.259C85.189-104.259 88.747-107.931 88.747-112.218L88.747-121.979C88.747-126.261 85.1264-129.876 80.8447-129.876C76.5579-129.876 72.9477-126.261 72.9477-121.979ZM111.705-103.501C108.631-100.432 108.568-95.4331 111.705-92.3529C114.785-89.2159 119.784-89.2785 122.853-92.3529L129.778-99.2716C132.852-102.346 132.852-107.345 129.778-110.425C126.698-113.499 121.698-113.499 118.624-110.425ZM141.326-53.5954C145.608-53.5954 149.223-57.2108 149.223-61.4925C149.223-65.7741 145.608-69.3948 141.326-69.3948L131.565-69.3948C127.278-69.3948 123.606-65.8367 123.606-61.4925C123.606-57.1537 127.278-53.5954 131.565-53.5954ZM80.8447-98.3525C62.8609-98.3525 47.8289-85.4798 47.8289-67.648C47.8289-51.2553 56.9506-44.003 58.916-18.3027C59.2174-13.6904 62.3856-10.9108 66.9394-10.9108L94.7503-10.9108C99.2415-10.9108 102.41-13.6904 102.825-18.3027C104.733-44.003 113.924-51.2553 113.924-67.5909C113.924-85.4227 98.8234-98.3525 80.8447-98.3525ZM65.773 2.77313L95.9162 2.77313C98.4006 2.77313 100.345 0.663118 100.345-1.5929C100.345-3.91151 98.4006-5.95922 95.9162-5.95922L65.773-5.95922C63.2828-5.95922 61.3496-3.91151 61.3496-1.5929C61.3496 0.663118 63.2828 2.77313 65.773 2.77313ZM80.8445 17.5743C88.9302 17.5743 94.6072 13.6625 94.9245 7.71924L66.5363 7.71924C66.9052 13.6625 72.7477 17.5743 80.8445 17.5743Z" data-clipstroke-keyframes="0 0 0 0.35427198 0.0055302945 0 1 0.5063708 0.86480075 0 0 1.3539567 1.9948545 0 1 1.5052314 1.8635964 0 0 2.3568783 2.9972477 0 1 2.506342 2.864796 0 0 3.3539264 3.995046 0 1 3.5052094 3.8638036 0 0 4.502078 4.8617525 0 1 4.9942102 4.352609"/>
  </g>
  <g id="Heavy-M" transform="matrix(1 0 0 1 2558.36 1126)">
   <path d="M29.1488-54.7418C32.9556-54.7418 36.2487-57.9103 36.2487-61.7629C36.2487-65.632 32.9556-68.8028 29.1488-68.8028L19.4821-68.8028C15.673-68.8028 12.4609-65.572 12.4609-61.7629C12.4609-57.9539 15.673-54.7418 19.4821-54.7418ZM38.1624-92.0163C40.893-89.2834 45.345-89.2233 48.0824-92.0163C50.8612-94.7656 50.8012-99.2011 48.0824-101.922L41.2343-108.787C38.5178-111.524 34.0494-111.524 31.3143-108.787C28.5814-106.037 28.5814-101.604 31.3143-98.8667ZM71.3169-110.952C71.3169-107.129 74.4666-103.871 78.338-103.871C82.2071-103.871 85.3778-107.129 85.3778-110.952L85.3778-120.619C85.3778-124.428 82.1471-127.642 78.338-127.642C74.5103-127.642 71.3169-124.428 71.3169-120.619ZM108.591-101.922C105.854-99.2011 105.794-94.7656 108.591-92.0163C111.341-89.2211 115.778-89.2811 118.495-92.0163L125.359-98.8667C128.097-101.604 128.097-106.037 125.359-108.787C122.61-111.524 118.177-111.524 115.439-108.787ZM137.178-54.7418C140.984-54.7418 144.201-57.9539 144.201-61.7629C144.201-65.572 140.984-68.8028 137.178-68.8028L127.511-68.8028C123.688-68.8028 120.43-65.632 120.43-61.7629C120.43-57.9103 123.688-54.7418 127.511-54.7418ZM78.338-97.2145C60.5168-97.2145 45.8401-84.4245 45.8401-67.0338C45.8401-50.3312 55.3033-43.758 57.4882-16.9318C57.7601-12.9893 60.401-10.6209 64.3112-10.6209L92.3625-10.6209C96.2127-10.6209 98.8536-12.9893 99.2127-16.9318C101.356-43.758 110.891-50.3312 110.891-66.9901C110.891-84.3809 96.1405-97.2145 78.338-97.2145ZM63.3936 2.19405L93.2847 2.19405C95.5549 2.19405 97.3413 0.293141 97.3413-1.80256C97.3413-3.9583 95.5549-5.79691 93.2847-5.79691L63.3936-5.79691C61.1093-5.79691 59.3557-3.9583 59.3557-1.80256C59.3557 0.293141 61.1093 2.19405 63.3936 2.19405ZM78.3403 16.6549C86.206 16.6549 91.9808 12.8039 92.3065 7.00168L64.1973 7.00168C64.5502 12.8039 70.4417 16.6549 78.3403 16.6549Z" data-clipstroke-keyframes="0 0 0 0.34448284 0.004859711 0 1 0.50586927 0.8526681 0 0 1.342197 1.9953353 0 1 1.5045528 1.8501987 0 0 2.3462536 2.9981153 0 1 2.5057032 2.8526545 0 0 3.342154 3.996283 0 1 3.5045366 3.851132 0 0 4.5020757 4.850144 0 1 4.995602 4.342609"/>
  </g>
  <g id="Bold-M" transform="matrix(1 0 0 1 2264.46 1126)">
   <path d="M28.0637-56.0242C31.339-56.0242 34.196-58.7565 34.196-62.0655C34.196-65.4031 31.339-68.1405 28.0637-68.1405L18.5022-68.1405C15.2218-68.1405 12.4609-65.3459 12.4609-62.0655C12.4609-58.7851 15.2218-56.0242 18.5022-56.0242ZM37.4147-91.6396C39.7601-89.2891 43.5937-89.2319 45.9546-91.6396C48.3388-94.0188 48.2817-97.8238 45.9546-100.156L39.1857-106.954C36.8637-109.314 33.0015-109.314 30.6458-106.954C28.2952-104.574 28.2952-100.775 30.6458-98.4137ZM69.4926-109.536C69.4926-106.232 72.1912-103.437 75.5339-103.437C78.8714-103.437 81.6089-106.232 81.6089-109.536L81.6089-119.097C81.6089-122.378 78.8143-125.144 75.5339-125.144C72.2197-125.144 69.4926-122.378 69.4926-119.097ZM105.108-100.156C102.747-97.8238 102.69-94.0188 105.108-91.6396C107.487-89.2268 111.297-89.2839 113.619-91.6396L120.417-98.4137C122.778-100.775 122.778-104.574 120.417-106.954C118.038-109.314 114.238-109.314 111.877-106.954ZM132.537-56.0242C135.812-56.0242 138.583-58.7851 138.583-62.0655C138.583-65.3459 135.812-68.1405 132.537-68.1405L122.975-68.1405C119.671-68.1405 116.877-65.4031 116.877-62.0655C116.877-58.7565 119.671-56.0242 122.975-56.0242ZM75.5339-95.9416C57.8946-95.9416 43.6153-83.2441 43.6153-66.3466C43.6153-49.2975 53.4605-43.4839 55.8911-15.3982C56.1299-12.205 58.1808-10.2967 61.3712-10.2967L89.6914-10.2967C92.8246-10.2967 94.8755-12.205 95.1715-15.3982C97.5786-43.4839 107.499-49.2975 107.499-66.3181C107.499-83.2155 93.1393-95.9416 75.5339-95.9416ZM60.732 1.54627L90.3409 1.54627C92.3715 1.54627 93.9815-0.120732 93.9815-2.0371C93.9815-4.01064 92.3715-5.61534 90.3409-5.61534L60.732-5.61534C58.6779-5.61534 57.1252-4.01064 57.1252-2.0371C57.1252-0.120732 58.6779 1.54627 60.732 1.54627ZM75.539 15.6263C83.1586 15.6263 89.0428 11.8434 89.3778 6.19898L61.5809 6.19898C61.9158 11.8434 67.8621 15.6263 75.539 15.6263Z" data-clipstroke-keyframes="0 0 0 0.3309346 0.004115296 0 1 0.50534856 0.8363068 0 0 1.3280542 1.9960337 0 1 1.503841 1.8340347 0 0 2.3317678 2.9991102 0 1 2.5049975 2.8362784 0 0 3.3280067 3.9978666 0 1 3.5038152 3.8359313 0 0 4.502036 4.8344646 0 1 4.9972897 4.3287673"/>
  </g>
  <g id="Semibold-M" transform="matrix(1 0 0 1 1969.68 1126)">
   <path d="M27.3157-56.9083C30.2246-56.9083 32.7808-59.34 32.7808-62.2741C32.7808-65.2452 30.2246-67.684 27.3157-67.684L17.8267-67.684C14.9108-67.684 12.4609-65.19 12.4609-62.2741C12.4609-59.3581 14.9108-56.9083 17.8267-56.9083ZM36.8992-91.38C38.9791-89.293 42.3865-89.2378 44.4877-91.38C46.5999-93.5041 46.5447-96.8744 44.4877-98.9385L37.7734-105.69C35.7234-107.791 32.279-107.791 30.1849-105.69C28.0979-103.566 28.0979-100.203 30.1849-98.1014ZM68.2349-108.559C68.2349-105.613 70.6225-103.138 73.6007-103.138C76.5719-103.138 79.0106-105.613 79.0106-108.559L79.0106-118.048C79.0106-120.964 76.5167-123.421 73.6007-123.421C70.6406-123.421 68.2349-120.964 68.2349-118.048ZM102.707-98.9385C100.605-96.8744 100.55-93.5041 102.707-91.38C104.831-89.2307 108.208-89.2859 110.258-91.38L117.009-98.1014C119.111-100.203 119.111-103.566 117.009-105.69C114.885-107.791 111.522-107.791 109.421-105.69ZM129.338-56.9083C132.247-56.9083 134.711-59.3581 134.711-62.2741C134.711-65.19 132.247-67.684 129.338-67.684L119.849-67.684C116.903-67.684 114.428-65.2452 114.428-62.2741C114.428-59.34 116.903-56.9083 119.849-56.9083ZM73.6007-95.064C56.0869-95.064 42.0816-82.4303 42.0816-65.873C42.0816-48.5848 52.1901-43.295 54.79-14.341C55.0061-11.6643 56.6503-10.0731 59.3444-10.0731L87.8499-10.0731C90.4888-10.0731 92.133-11.6643 92.3855-14.341C94.9743-43.295 105.161-48.5848 105.161-65.8548C105.161-82.4121 91.0703-95.064 73.6007-95.064ZM58.897 1.09969L88.3115 1.09969C90.1769 1.09969 91.6652-0.406053 91.6652-2.19879C91.6652-4.04672 90.1769-5.49016 88.3115-5.49016L58.897-5.49016C57.0017-5.49016 55.5875-4.04672 55.5875-2.19879C55.5875-0.406053 57.0017 1.09969 58.897 1.09969ZM73.6078 14.9172C81.0578 14.9172 87.0173 11.1813 87.3588 5.64561L59.7771 5.64561C60.0997 11.1813 66.0838 14.9172 73.6078 14.9172Z" data-clipstroke-keyframes="0 0 0 0.31950575 0.0036067087 0 1 0.505022 0.82278466 0 0 1.3161488 1.9965956 0 1 1.5033385 1.8206606 0 0 2.3196898 2.9998157 0 1 2.504518 2.8227417 0 0 3.3161023 3.9990704 0 1 3.5032876 3.8233466 0 0 4.501979 4.8214874 0 1 4.998557 4.317088"/>
  </g>
  <g id="Medium-M" transform="matrix(1 0 0 1 1674.44 1126)">
   <path d="M26.7485-57.5786C29.3795-57.5786 31.7078-59.7823 31.7078-62.4322C31.7078-65.1255 29.3795-67.3378 26.7485-67.3378L17.3145-67.3378C14.6749-67.3378 12.4609-65.0718 12.4609-62.4322C12.4609-59.7926 14.6749-57.5786 17.3145-57.5786ZM36.5084-91.1832C38.3869-89.296 41.471-89.2423 43.3754-91.1832C45.2814-93.1137 45.2277-96.1544 43.3754-98.0153L36.7025-104.732C34.8588-106.636 31.7312-106.636 29.8355-104.732C27.9483-102.801 27.9483-99.769 29.8355-97.8646ZM67.2813-107.819C67.2813-105.144 69.433-102.911 72.1349-102.911C74.8282-102.911 77.0405-105.144 77.0405-107.819L77.0405-117.253C77.0405-119.892 74.7745-122.115 72.1349-122.115C69.4433-122.115 67.2813-119.892 67.2813-117.253ZM100.886-98.0153C98.9815-96.1544 98.9278-93.1137 100.886-91.1832C102.816-89.2337 105.866-89.2874 107.709-91.1832L114.426-97.8646C116.33-99.769 116.33-102.801 114.426-104.732C112.495-106.636 109.463-106.636 107.559-104.732ZM126.912-57.5786C129.543-57.5786 131.774-59.7926 131.774-62.4322C131.774-65.0718 129.543-67.3378 126.912-67.3378L117.478-67.3378C114.803-67.3378 112.571-65.1255 112.571-62.4322C112.571-59.7823 114.803-57.5786 117.478-57.5786ZM72.1349-94.3986C54.7162-94.3986 40.9186-81.8132 40.9186-65.5138C40.9186-48.0445 51.2269-43.1517 53.9551-13.5394C54.154-11.2543 55.4898-9.90362 57.8075-9.90362L86.4537-9.90362C88.7178-9.90362 90.0536-11.2543 90.273-13.5394C92.9995-43.1517 103.388-48.0445 103.388-65.5035C103.388-81.803 89.5015-94.3986 72.1349-94.3986ZM57.5057 0.761078L86.7727 0.761078C88.5128 0.761078 89.9089-0.622396 89.9089-2.32139C89.9089-4.07408 88.5128-5.39525 86.7727-5.39525L57.5057-5.39525C55.7308-5.39525 54.4215-4.07408 54.4215-2.32139C54.4215-0.622396 55.7308 0.761078 57.5057 0.761078ZM72.1435 14.3795C79.4648 14.3795 85.4815 10.6792 85.8279 5.22602L58.4094 5.22602C58.7226 10.6792 64.7354 14.3795 72.1435 14.3795Z" data-clipstroke-keyframes="0 0 0 0.3076873 0.0032065727 0 1 0.50477564 0.809293 0 0 1.3056177 1.997078 0 1 1.5029491 1.8089635 0 0 2.3073568 2.000342 0 1 2.5041294 2.8092275 0 0 3.3055756 3.0000618 0 1 3.5028663 3.8123362 0 0 4.5019126 4.8084507 0 1 4.9995627 4.3050585"/>
  </g>
  <g id="Regular-M" transform="matrix(1 0 0 1 1379.64 1126)">
   <path d="M26.0087-58.453C28.2773-58.453 30.3083-60.3593 30.3083-62.6385C30.3083-64.9694 28.2773-66.8863 26.0087-66.8863L16.6464-66.8863C14.3673-66.8863 12.4609-64.9177 12.4609-62.6385C12.4609-60.3593 14.3673-58.453 16.6464-58.453ZM35.9986-90.9264C37.6145-89.2999 40.277-89.2482 41.9246-90.9264C43.5616-92.6046 43.5098-95.2154 41.9246-96.8112L35.3057-103.482C33.731-105.129 31.0167-105.129 29.3797-103.482C27.7532-101.804 27.7532-99.2034 29.3797-97.5558ZM66.0375-106.853C66.0375-104.532 67.8815-102.616 70.223-102.616C72.5539-102.616 74.4708-104.532 74.4708-106.853L74.4708-116.215C74.4708-118.494 72.5022-120.411 70.223-120.411C67.8815-120.411 66.0375-118.494 66.0375-116.215ZM98.5109-96.8112C96.8633-95.2154 96.8115-92.6046 98.5109-90.9264C100.189-89.2376 102.81-89.2894 104.385-90.9264L111.056-97.5558C112.703-99.2034 112.703-101.804 111.056-103.482C109.378-105.129 106.777-105.129 105.13-103.482ZM123.748-58.453C126.016-58.453 127.944-60.3593 127.944-62.6385C127.944-64.9177 126.016-66.8863 123.748-66.8863L114.386-66.8863C112.065-66.8863 110.148-64.9694 110.148-62.6385C110.148-60.3593 112.065-58.453 114.386-58.453ZM70.223-93.5306C52.9284-93.5306 39.4017-81.0084 39.4017-65.0453C39.4017-47.3397 49.9704-42.9648 52.8661-12.4938C53.0425-10.7196 53.976-9.68253 55.803-9.68253L84.6325-9.68253C86.4077-9.68253 87.3412-10.7196 87.5176-12.4938C90.4238-42.9648 101.075-47.3397 101.075-65.0453C101.075-81.0084 87.4553-93.5306 70.223-93.5306ZM55.6909 0.319408L84.7656 0.319408C86.3423 0.319408 87.6181-0.904582 87.6181-2.4813C87.6181-4.10977 86.3423-5.27145 84.7656-5.27145L55.6909-5.27145C54.073-5.27145 52.9008-4.10977 52.9008-2.4813C52.9008-0.904582 54.073 0.319408 55.6909 0.319408ZM70.2335 13.6783C77.387 13.6783 83.4783 10.0244 83.8311 4.67873L56.6255 4.67873C56.9265 10.0244 62.9766 13.6783 70.2335 13.6783Z" data-clipstroke-keyframes="0 0 0 0.2920546 0.0027144921 0 1 0.5045216 0.79126304 0 0 1.2894166 1.9977993 0 1 1.5024276 1.7911557 0 0 2.2910707 2.0010827 0 1 2.5036697 2.7911692 0 0 3.289388 3.001483 0 1 3.5022826 3.7955694 0 0 4.501796 4.791115 0 1 4.0010405 4.2890744"/>
  </g>
  <g id="Light-M" transform="matrix(1 0 0 1 1085.53 1126)">
   <path d="M25.6494-59.993C27.3533-59.993 28.9394-61.4544 28.9394-63.1861C28.9394-64.9523 27.3533-66.4414 25.6494-66.4414L15.654-66.4414C13.9224-66.4414 12.4609-64.9177 12.4609-63.1861C12.4609-61.4544 13.9224-59.993 15.654-59.993ZM35.6734-90.567C36.8787-89.3341 38.9081-89.2995 40.1964-90.567C41.457-91.8346 41.4223-93.8294 40.1964-95.083L33.1497-102.164C31.9515-103.453 29.8874-103.453 28.6268-102.164C27.3939-100.897 27.3939-98.9296 28.6268-97.6413ZM64.412-105.142C64.412-103.403 65.8111-101.914 67.605-101.914C69.3713-101.914 70.8604-103.403 70.8604-105.142L70.8604-115.137C70.8604-116.869 69.3366-118.358 67.605-118.358C65.8111-118.358 64.412-116.869 64.412-115.137ZM94.986-95.083C93.6978-93.8294 93.6631-91.8346 94.986-90.567C96.2536-89.2718 98.276-89.3065 99.4743-90.567L106.556-97.6413C107.844-98.9296 107.844-100.897 106.556-102.164C105.288-103.453 103.321-103.453 102.033-102.164ZM119.521-59.993C121.225-59.993 122.742-61.4544 122.742-63.1861C122.742-64.9177 121.225-66.4414 119.521-66.4414L109.526-66.4414C107.787-66.4414 106.298-64.9523 106.298-63.1861C106.298-61.4544 107.787-59.993 109.526-59.993ZM67.605-92.9488C50.858-92.9488 37.7249-80.5293 37.7249-65.3533C37.7249-48.6401 48.054-43.9401 50.7957-13.0585C50.9549-11.4383 51.7858-10.5381 53.5443-10.5381L81.6381-10.5381C83.3619-10.5381 84.1928-11.4383 84.3521-13.0585C87.1214-43.9401 97.4645-48.6401 97.4645-65.3533C97.4645-80.5293 84.2898-92.9488 67.605-92.9488ZM53.6547-1.39169L81.583-1.39169C82.9886-1.39169 84.1103-2.47879 84.1103-3.8844C84.1103-5.32464 82.9886-6.34944 81.583-6.34944L53.6547-6.34944C52.2421-6.34944 51.1897-5.32464 51.1897-3.8844C51.1897-2.47879 52.2421-1.39169 53.6547-1.39169ZM67.6327 11.4025C74.6664 11.4025 80.3299 7.88551 80.6484 2.76231L54.5893 2.76231C54.8731 7.88551 60.5297 11.4025 67.6327 11.4025Z" data-clipstroke-keyframes="0 0 0 0.25027153 0.0028155486 0 1 0.50448346 0.7517553 0 0 1.2501955 1.9962478 0 1 1.5023516 1.750845 0 0 2.2488785 2.99828 0 1 2.5031335 2.7517247 0 0 3.2511067 3.0017028 0 1 3.5027776 3.7573285 0 0 4.502475 4.7519045 0 1 4.9982576 4.2480454"/>
  </g>
  <g id="Thin-M" transform="matrix(1 0 0 1 792.261 1126)">
   <path d="M25.1741-62.0297C26.1313-62.0297 27.1289-62.9028 27.1289-63.9102C27.1289-64.9297 26.1313-65.853 25.1741-65.853L14.3414-65.853C13.334-65.853 12.4609-64.9177 12.4609-63.9102C12.4609-62.9028 13.334-62.0297 14.3414-62.0297ZM35.2435-90.0918C35.9056-89.3794 37.0977-89.3674 37.9107-90.0918C38.6734-90.8162 38.6614-91.9963 37.9107-92.7973L30.2983-100.422C29.5979-101.235 28.3938-101.235 27.6311-100.422C26.9187-99.6973 26.9187-98.5675 27.6311-97.7545ZM62.262-102.879C62.262-101.909 63.0728-100.986 64.1425-100.986C65.162-100.986 66.0853-101.909 66.0853-102.879L66.0853-113.711C66.0853-114.719 65.15-115.642 64.1425-115.642C63.0728-115.642 62.262-114.719 62.262-113.711ZM90.3241-92.7973C89.5111-91.9963 89.4991-90.8162 90.3241-90.0918C91.0485-89.3171 92.2789-89.3291 92.9793-90.0918L100.604-97.7545C101.417-98.5675 101.417-99.6973 100.604-100.422C99.8793-101.235 98.7495-101.235 97.9365-100.422ZM113.932-62.0297C114.889-62.0297 115.862-62.9028 115.862-63.9102C115.862-64.9177 114.889-65.853 113.932-65.853L103.099-65.853C102.13-65.853 101.206-64.9297 101.206-63.9102C101.206-62.9028 102.13-62.0297 103.099-62.0297ZM64.1425-92.1794C48.1197-92.1794 35.5071-79.8956 35.5071-65.7606C35.5071-50.36 45.5194-45.2301 48.0574-13.8053C48.194-12.3888 48.8891-11.6696 50.5571-11.6696L77.6777-11.6696C79.3337-11.6696 80.0288-12.3888 80.1654-13.8053C82.7537-45.2301 92.6894-50.36 92.6894-65.7606C92.6894-79.8956 80.1031-92.1794 64.1425-92.1794ZM50.9617-3.65475L77.3737-3.65475C78.553-3.65475 79.4711-4.5608 79.4711-5.7401C79.4711-6.93142 78.553-7.77517 77.3737-7.77517L50.9617-7.77517C49.8206-7.77517 48.9266-6.93142 48.9266-5.7401C48.9266-4.5608 49.8206-3.65475 50.9617-3.65475ZM64.1928 8.39263C71.0681 8.39263 76.1659 5.05669 76.4391 0.227681L51.8962 0.227681C52.1575 5.05669 57.2935 8.39263 64.1928 8.39263Z" data-clipstroke-keyframes="0 0 0 0.17633887 0.0024343336 0 1 0.50379884 0.68227774 0 0 1.1822656 1.9932086 0 1 1.5049553 1.6776996 0 0 2.1742852 2.9936223 0 1 2.5016015 2.6824212 0 0 3.1839862 3.001626 0 1 3.50309 3.6901073 0 0 4.503116 4.6830454 0 1 4.9936113 4.175467"/>
  </g>
  <g id="Ultralight-M" transform="matrix(1 0 0 1 497.311 1126)">
   <path d="M24.9307-63.073C25.5053-63.073 26.2016-63.6446 26.2016-64.2812C26.2016-64.9181 25.5053-65.5517 24.9307-65.5517L13.6691-65.5517C13.0326-65.5517 12.4609-64.9177 12.4609-64.2812C12.4609-63.6446 13.0326-63.073 13.6691-63.073ZM35.0232-89.8484C35.4072-89.4026 36.1704-89.4022 36.74-89.8484C37.2477-90.2946 37.2472-91.0574 36.74-91.6266L28.8378-99.5292C28.3924-100.099 27.6288-100.099 27.1211-99.5292C26.6752-99.0829 26.6752-98.382 27.1211-97.8124ZM61.1609-101.72C61.1609-101.144 61.6703-100.511 62.3691-100.511C63.006-100.511 63.6396-101.144 63.6396-101.72L63.6396-112.981C63.6396-113.618 63.0056-114.251 62.3691-114.251C61.6703-114.251 61.1609-113.618 61.1609-112.981ZM87.9363-91.6266C87.3667-91.0574 87.3663-90.2946 87.9363-89.8484C88.3825-89.3403 89.2072-89.3407 89.6526-89.8484L97.5552-97.8124C98.1248-98.382 98.1248-99.0829 97.5552-99.5292C97.109-100.099 96.4081-100.099 95.8385-99.5292ZM111.069-63.073C111.643-63.073 112.339-63.6446 112.339-64.2812C112.339-64.9177 111.643-65.5517 111.069-65.5517L99.807-65.5517C99.232-65.5517 98.5984-64.9181 98.5984-64.2812C98.5984-63.6446 99.232-63.073 99.807-63.073ZM62.3691-91.7853C46.7171-91.7853 34.3711-79.5711 34.3711-65.9693C34.3711-51.241 44.2212-45.8908 46.6548-14.1878C46.7799-12.8756 47.4054-12.2492 49.027-12.2492L75.6492-12.2492C77.2704-12.2492 77.896-12.8756 78.021-14.1878C80.5166-45.8908 90.2437-51.241 90.2437-65.9693C90.2437-79.5711 77.9587-91.7853 62.3691-91.7853ZM49.5823-4.81387L75.2177-4.81387C76.2811-4.81387 77.0949-5.6272 77.0949-6.69059C77.0949-7.7544 76.2811-8.50542 75.2177-8.50542L49.5823-8.50542C48.5804-8.50542 47.7675-7.7544 47.7675-6.69059C47.7675-5.6272 48.5804-4.81387 49.5823-4.81387ZM62.431 6.85099C69.2251 6.85099 74.0331 3.60778 74.2832-1.07054L50.5169-1.07054C50.7665 3.60778 55.636 6.85099 62.431 6.85099Z" data-clipstroke-keyframes="0 0 0 0.12681971 0.0019106524 0 1 0.5052073 0.63386464 0 0 1.1276836 1.9909136 0 1 1.5018437 1.6239734 0 0 2.120596 2.9905362 0 1 2.5004373 2.6324747 0 0 3.1303182 3.0012457 0 1 3.5036368 3.6356938 0 0 4.5032816 4.6366796 0 1 4.990599 4.1263433"/>
  </g>
  <g id="Black-S" transform="matrix(1 0 0 1 2869.44 696)">
   <path d="M23.877-49.3652C27.3438-49.3652 30.3223-52.2461 30.3223-55.7617C30.3223-59.2773 27.3438-62.1582 23.877-62.1582L16.1621-62.1582C12.6953-62.1582 9.76562-59.2285 9.76562-55.7617C9.76562-52.2949 12.6953-49.3652 16.1621-49.3652ZM30.6152-80.0781C33.1055-77.5879 37.1582-77.5391 39.6484-80.0781C42.1875-82.5684 42.1387-86.6211 39.6484-89.1113L34.1797-94.5801C31.6895-97.0703 27.6367-97.0703 25.1465-94.5801C22.6562-92.0898 22.6562-88.0371 25.1465-85.5469ZM57.5684-95.8496C57.5684-92.3828 60.4492-89.4043 63.9648-89.4043C67.4805-89.4043 70.3613-92.3828 70.3613-95.8496L70.3613-103.564C70.3613-107.031 67.4316-109.961 63.9648-109.961C60.498-109.961 57.5684-107.031 57.5684-103.564ZM88.2812-89.1113C85.791-86.6211 85.7422-82.5684 88.2812-80.0781C90.7715-77.5391 94.8242-77.5879 97.3145-80.0781L102.783-85.5469C105.273-88.0371 105.273-92.0898 102.783-94.5801C100.293-97.0703 96.2402-97.0703 93.75-94.5801ZM111.768-49.3652C115.234-49.3652 118.164-52.2949 118.164-55.7617C118.164-59.2285 115.234-62.1582 111.768-62.1582L104.053-62.1582C100.586-62.1582 97.6074-59.2773 97.6074-55.7617C97.6074-52.2461 100.586-49.3652 104.053-49.3652ZM63.9648-85.0098C49.8535-85.0098 37.9883-74.9023 37.9883-60.8398C37.9883-48.1445 45.0195-42.2363 46.4844-22.4121C46.7285-18.6035 49.3652-16.3086 53.125-16.3086L74.8047-16.3086C78.5156-16.3086 81.1523-18.6035 81.4941-22.4121C82.9102-42.2363 89.9902-48.1445 89.9902-60.791C89.9902-74.8535 78.0762-85.0098 63.9648-85.0098ZM52.1484-5.37109L75.7812-5.37109C77.7832-5.37109 79.3457-7.08008 79.3457-8.88672C79.3457-10.7422 77.7832-12.4023 75.7812-12.4023L52.1484-12.4023C50.1465-12.4023 48.584-10.7422 48.584-8.88672C48.584-7.08008 50.1465-5.37109 52.1484-5.37109ZM63.9648 6.29883C70.3613 6.29883 74.7559 3.22266 75-1.46484L52.7344-1.46484C53.0273 3.22266 57.5684 6.29883 63.9648 6.29883Z" data-clipstroke-keyframes="0 0 0 0.35619497 0.00582124 0 1 0.50659585 0.8677436 0 0 1.3561351 1.9945695 0 1 1.5054898 1.8664116 0 0 2.3590996 2.9967477 0 1 2.5065958 2.8677435 0 0 3.3561351 3.9945695 0 1 3.5054898 3.8664117 0 0 4.5021396 4.8644915 0 1 4.9934955 4.3546433"/>
  </g>
  <g id="Heavy-S" transform="matrix(1 0 0 1 2574.54 696)">
   <path d="M23.0933-50.1489C26.2259-50.1489 28.9278-52.7532 28.9278-55.9231C28.9278-59.1045 26.2259-61.7087 23.0933-61.7087L15.5398-61.7087C12.4072-61.7087 9.76562-59.0556 9.76562-55.9231C9.76562-52.7905 12.4072-50.1489 15.5398-50.1489ZM30.0851-79.8361C32.3333-77.5879 35.9942-77.5391 38.2425-79.8361C40.528-82.0959 40.4791-85.7452 38.2425-87.9819L32.8889-93.347C30.6523-95.5952 26.9798-95.5952 24.7316-93.347C22.4834-91.0872 22.4834-87.4378 24.7316-85.1896ZM56.3813-94.9853C56.3813-91.8412 58.9741-89.1623 62.1555-89.1623C65.3369-89.1623 67.9412-91.8412 67.9412-94.9853L67.9412-102.539C67.9412-105.671 65.2881-108.313 62.1555-108.313C59.0114-108.313 56.3813-105.671 56.3813-102.539ZM86.0686-87.9819C83.8203-85.7452 83.7715-82.0959 86.0686-79.8361C88.3283-77.5391 91.9777-77.5879 94.2144-79.8361L99.5794-85.1896C101.828-87.4378 101.828-91.0872 99.5794-93.347C97.3197-95.5952 93.6703-95.5952 91.4221-93.347ZM108.76-50.1489C111.892-50.1489 114.534-52.7905 114.534-55.9231C114.534-59.0556 111.892-61.7087 108.76-61.7087L101.206-61.7087C98.0621-61.7087 95.3832-59.1045 95.3832-55.9231C95.3832-52.7532 98.0621-50.1489 101.206-50.1489ZM62.1555-84.1109C48.1133-84.1109 36.5016-74.0611 36.5016-60.2751C36.5016-47.188 43.8556-41.9021 45.5278-21.1675C45.7489-17.912 47.9477-15.9513 51.1658-15.9513L73.1452-15.9513C76.3145-15.9513 78.5132-17.912 78.8089-21.1675C80.4439-41.9021 87.8582-47.188 87.8582-60.2378C87.8582-74.0238 76.1862-84.1109 62.1555-84.1109ZM50.3737-5.64768L73.9373-5.64768C75.7779-5.64768 77.2252-7.19532 77.2252-8.88672C77.2252-10.6269 75.7779-12.1258 73.9373-12.1258L50.3737-12.1258C48.5215-12.1258 47.0973-10.6269 47.0973-8.88672C47.0973-7.19532 48.5215-5.64768 50.3737-5.64768ZM62.1555 5.80328C68.3791 5.80328 72.9119 2.76168 73.1676-1.83363L50.9942-1.83363C51.2756 2.76168 55.9088 5.80328 62.1555 5.80328Z" data-clipstroke-keyframes="0 0 0 0.34944767 0.0050224406 0 1 0.50598806 0.8581635 0 0 1.3495905 1.9953241 0 1 1.5060432 1.8568113 0 0 2.3514946 2.9980624 0 1 2.5058897 2.85815 0 0 3.3504076 3.9959202 0 1 3.5072112 3.8570886 0 0 4.5020003 4.8554935 0 1 4.995418 4.34759"/>
  </g>
  <g id="Bold-S" transform="matrix(1 0 0 1 2279.86 696)">
   <path d="M22.2168-51.0254C24.9756-51.0254 27.3682-53.3203 27.3682-56.1035C27.3682-58.9111 24.9756-61.2061 22.2168-61.2061L14.8438-61.2061C12.085-61.2061 9.76562-58.8623 9.76562-56.1035C9.76562-53.3447 12.085-51.0254 14.8438-51.0254ZM29.4922-79.5654C31.4697-77.5879 34.6924-77.5391 36.6699-79.5654C38.6719-81.5674 38.623-84.7656 36.6699-86.7188L31.4453-91.9678C29.4922-93.9453 26.2451-93.9453 24.2676-91.9678C22.29-89.9658 22.29-86.7676 24.2676-84.79ZM55.0537-94.0186C55.0537-91.2354 57.3242-88.8916 60.1318-88.8916C62.9395-88.8916 65.2344-91.2354 65.2344-94.0186L65.2344-101.392C65.2344-104.15 62.8906-106.47 60.1318-106.47C57.3486-106.47 55.0537-104.15 55.0537-101.392ZM83.5938-86.7188C81.6162-84.7656 81.5674-81.5674 83.5938-79.5654C85.5957-77.5391 88.7939-77.5879 90.7471-79.5654L95.9961-84.79C97.9736-86.7676 97.9736-89.9658 95.9961-91.9678C93.9941-93.9453 90.7959-93.9453 88.8184-91.9678ZM105.396-51.0254C108.154-51.0254 110.474-53.3447 110.474-56.1035C110.474-58.8623 108.154-61.2061 105.396-61.2061L98.0225-61.2061C95.2393-61.2061 92.8955-58.9111 92.8955-56.1035C92.8955-53.3203 95.2393-51.0254 98.0225-51.0254ZM60.1318-83.1055C46.167-83.1055 34.8389-73.1201 34.8389-59.6436C34.8389-46.1182 42.5537-41.5283 44.458-19.7754C44.6533-17.1387 46.3623-15.5518 48.9746-15.5518L71.2891-15.5518C73.8525-15.5518 75.5615-17.1387 75.8057-19.7754C77.6855-41.5283 85.4736-46.1182 85.4736-59.6191C85.4736-73.0957 74.0723-83.1055 60.1318-83.1055ZM48.3887-5.95703L71.875-5.95703C73.5352-5.95703 74.8535-7.32422 74.8535-8.88672C74.8535-10.498 73.5352-11.8164 71.875-11.8164L48.3887-11.8164C46.7041-11.8164 45.4346-10.498 45.4346-8.88672C45.4346-7.32422 46.7041-5.95703 48.3887-5.95703ZM60.1318 5.24902C66.1621 5.24902 70.8496 2.24609 71.1182-2.24609L49.0479-2.24609C49.3164 2.24609 54.0527 5.24902 60.1318 5.24902Z" data-clipstroke-keyframes="0 0 0 0.3401715 0.0041446956 0 1 0.5053638 0.8455208 0 0 1.3369527 1.9962595 0 1 1.5039173 1.8433954 0 0 2.3412583 2.9995735 0 1 2.5051334 2.845486 0 0 3.3367596 3.997565 0 1 3.5037556 3.844849 0 0 4.5018115 4.8435745 0 1 4.9976954 4.3378987"/>
  </g>
  <g id="Semibold-S" transform="matrix(1 0 0 1 1984.55 696)">
   <path d="M21.6125-51.6297C24.1136-51.6297 26.2929-53.7113 26.2929-56.2279C26.2929-58.7778 24.1136-60.8595 21.6125-60.8595L14.3639-60.8595C11.8628-60.8595 9.76562-58.729 9.76562-56.2279C9.76562-53.7269 11.8628-51.6297 14.3639-51.6297ZM29.0834-79.3788C30.8743-77.5879 33.7948-77.5391 35.5857-79.3788C37.3922-81.203 37.3434-84.0902 35.5857-85.8479L30.45-91.0169C28.6924-92.8078 25.7386-92.8078 23.9477-91.0169C22.1567-89.1927 22.1567-86.3055 23.9477-84.5146ZM54.1384-93.3521C54.1384-90.8177 56.1867-88.705 58.7366-88.705C61.2865-88.705 63.3682-90.8177 63.3682-93.3521L63.3682-100.601C63.3682-103.102 61.2377-105.199 58.7366-105.199C56.2022-105.199 54.1384-103.102 54.1384-100.601ZM81.8875-85.8479C80.0966-84.0902 80.0478-81.203 81.8875-79.3788C83.7117-77.5391 86.5989-77.5879 88.3565-79.3788L93.5256-84.5146C95.3165-86.3055 95.3165-89.1927 93.5256-91.0169C91.7014-92.8078 88.8142-92.8078 87.0232-91.0169ZM103.076-51.6297C105.577-51.6297 107.674-53.7269 107.674-56.2279C107.674-58.729 105.577-60.8595 103.076-60.8595L95.8274-60.8595C93.2931-60.8595 91.1804-58.7778 91.1804-56.2279C91.1804-53.7113 93.2931-51.6297 95.8274-51.6297ZM58.7366-82.4123C44.8251-82.4123 33.6925-72.4714 33.6925-59.2081C33.6925-45.3806 41.6562-41.2706 43.7204-18.8156C43.8979-16.6055 45.2692-15.2763 47.4639-15.2763L70.0094-15.2763C72.1552-15.2763 73.5265-16.6055 73.7351-18.8156C75.7838-41.2706 83.8296-45.3806 83.8296-59.1926C83.8296-72.4559 72.6148-82.4123 58.7366-82.4123ZM47.0201-6.17031L70.4531-6.17031C71.9889-6.17031 73.2184-7.41309 73.2184-8.88672C73.2184-10.4092 71.9889-11.6031 70.4531-11.6031L47.0201-11.6031C45.4511-11.6031 44.2882-10.4092 44.2882-8.88672C44.2882-7.41309 45.4511-6.17031 47.0201-6.17031ZM58.7366 4.86689C64.6336 4.86689 69.4277 1.89062 69.7052-2.53047L47.706-2.53047C47.9656 1.89062 52.773 4.86689 58.7366 4.86689Z" data-clipstroke-keyframes="0 0 0 0.33241734 0.0035518496 0 1 0.50497717 0.8352899 0 0 1.3284473 1.9970107 0 1 1.5033606 1.8334066 0 0 2.3328412 2.0006473 0 1 2.5046382 2.835235 0 0 3.328167 3.9988155 0 1 3.503107 3.8354938 0 0 4.5016556 4.833899 0 1 4.999366 4.3297997"/>
  </g>
  <g id="Medium-S" transform="matrix(1 0 0 1 1688.9 696)">
   <path d="M21.1543-52.0879C23.46-52.0879 25.4775-54.0078 25.4775-56.3223C25.4775-58.6768 23.46-60.5967 21.1543-60.5967L14-60.5967C11.6943-60.5967 9.76562-58.6279 9.76562-56.3223C9.76562-54.0166 11.6943-52.0879 14-52.0879ZM28.7734-79.2373C30.4229-77.5879 33.1143-77.5391 34.7637-79.2373C36.4219-80.9268 36.373-83.5781 34.7637-85.1875L29.6953-90.2959C28.0859-91.9453 25.3545-91.9453 23.7051-90.2959C22.0557-88.6064 22.0557-85.9551 23.7051-84.3057ZM53.4443-92.8467C53.4443-90.501 55.3242-88.5635 57.6787-88.5635C60.0332-88.5635 61.9531-90.501 61.9531-92.8467L61.9531-100.001C61.9531-102.307 59.9844-104.235 57.6787-104.235C55.333-104.235 53.4443-102.307 53.4443-100.001ZM80.5938-85.1875C78.9443-83.5781 78.8955-80.9268 80.5938-79.2373C82.2832-77.5391 84.9346-77.5879 86.5439-79.2373L91.6523-84.3057C93.3018-85.9551 93.3018-88.6064 91.6523-90.2959C89.9629-91.9453 87.3115-91.9453 85.6621-90.2959ZM101.317-52.0879C103.623-52.0879 105.552-54.0166 105.552-56.3223C105.552-58.6279 103.623-60.5967 101.317-60.5967L94.1631-60.5967C91.8174-60.5967 89.8799-58.6768 89.8799-56.3223C89.8799-54.0078 91.8174-52.0879 94.1631-52.0879ZM57.6787-81.8867C43.8076-81.8867 32.8232-71.9795 32.8232-58.8779C32.8232-44.8213 40.9756-41.0752 43.1611-18.0879C43.3252-16.2012 44.4404-15.0674 46.3184-15.0674L69.0391-15.0674C70.8682-15.0674 71.9834-16.2012 72.165-18.0879C74.3418-41.0752 82.583-44.8213 82.583-58.8691C82.583-71.9707 71.5098-81.8867 57.6787-81.8867ZM45.9824-6.33203L69.375-6.33203C70.8164-6.33203 71.9785-7.48047 71.9785-8.88672C71.9785-10.3418 70.8164-11.4414 69.375-11.4414L45.9824-11.4414C44.501-11.4414 43.4189-10.3418 43.4189-8.88672C43.4189-7.48047 44.501-6.33203 45.9824-6.33203ZM57.6787 4.57715C63.4746 4.57715 68.3496 1.62109 68.6338-2.74609L46.6885-2.74609C46.9414 1.62109 51.8027 4.57715 57.6787 4.57715Z" data-clipstroke-keyframes="0 0 0 0.32561257 0.0031107154 0 1 0.5047138 0.8265012 0 0 1.3210006 1.9976361 0 1 1.5029359 1.8248085 0 0 2.325533 2.0014832 0 1 2.504281 2.8264272 0 0 3.3206465 3.9998312 0 1 3.5025973 3.8274267 0 0 4.50152 4.825569 0 1 4.0007005 4.322693"/>
  </g>
  <g id="Regular-S" transform="matrix(1 0 0 1 1393.57 696)">
   <path d="M20.5566-52.6855C22.6074-52.6855 24.4141-54.3945 24.4141-56.4453C24.4141-58.5449 22.6074-60.2539 20.5566-60.2539L13.5254-60.2539C11.4746-60.2539 9.76562-58.4961 9.76562-56.4453C9.76562-54.3945 11.4746-52.6855 13.5254-52.6855ZM28.3691-79.0527C29.834-77.5879 32.2266-77.5391 33.6914-79.0527C35.1562-80.5664 35.1074-82.9102 33.6914-84.3262L28.7109-89.3555C27.2949-90.8203 24.8535-90.8203 23.3887-89.3555C21.9238-87.8418 21.9238-85.498 23.3887-84.0332ZM52.5391-92.1875C52.5391-90.0879 54.1992-88.3789 56.2988-88.3789C58.3984-88.3789 60.1074-90.0879 60.1074-92.1875L60.1074-99.2188C60.1074-101.27 58.3496-102.979 56.2988-102.979C54.1992-102.979 52.5391-101.27 52.5391-99.2188ZM78.9062-84.3262C77.4414-82.9102 77.3926-80.5664 78.9062-79.0527C80.4199-77.5391 82.7637-77.5879 84.1797-79.0527L89.209-84.0332C90.6738-85.498 90.6738-87.8418 89.209-89.3555C87.6953-90.8203 85.3516-90.8203 83.8867-89.3555ZM99.0234-52.6855C101.074-52.6855 102.783-54.3945 102.783-56.4453C102.783-58.4961 101.074-60.2539 99.0234-60.2539L91.9922-60.2539C89.8926-60.2539 88.1836-58.5449 88.1836-56.4453C88.1836-54.3945 89.8926-52.6855 91.9922-52.6855ZM56.2988-81.2012C42.4805-81.2012 31.6895-71.3379 31.6895-58.4473C31.6895-44.0918 40.0879-40.8203 42.4316-17.1387C42.5781-15.6738 43.3594-14.7949 44.8242-14.7949L67.7734-14.7949C69.1895-14.7949 69.9707-15.6738 70.1172-17.1387C72.4609-40.8203 80.957-44.0918 80.957-58.4473C80.957-71.3379 70.0684-81.2012 56.2988-81.2012ZM44.6289-6.54297L67.9688-6.54297C69.2871-6.54297 70.3613-7.56836 70.3613-8.88672C70.3613-10.2539 69.2871-11.2305 67.9688-11.2305L44.6289-11.2305C43.2617-11.2305 42.2852-10.2539 42.2852-8.88672C42.2852-7.56836 43.2617-6.54297 44.6289-6.54297ZM56.2988 4.19922C61.9629 4.19922 66.9434 1.26953 67.2363-3.02734L45.3613-3.02734C45.6055 1.26953 50.5371 4.19922 56.2988 4.19922Z" data-clipstroke-keyframes="0 0 0 0.3135715 0.002535089 0 1 0.5043997 0.8117069 0 0 1.3096898 1.9985409 0 1 1.5023777 1.8119533 0 0 2.312809 2.0025942 0 1 2.503813 2.8115904 0 0 3.309228 3.0012636 0 1 3.5019028 3.8153458 0 0 4.501318 4.8114247 0 1 4.0025363 4.3102064"/>
  </g>
  <g id="Light-S" transform="matrix(1 0 0 1 1099.16 696)">
   <path d="M20.2388-54.0478C21.79-54.0478 23.2031-55.3633 23.2031-56.9297C23.2031-58.5298 21.79-59.8604 20.2388-59.8604L12.6475-59.8604C11.0811-59.8604 9.76562-58.4961 9.76562-56.9297C9.76562-55.3633 11.0811-54.0478 12.6475-54.0478ZM28.0815-78.7349C29.1831-77.6182 31.0156-77.5845 32.1626-78.7349C33.2944-79.8853 33.2608-81.6841 32.1626-82.7974L26.8037-88.19C25.7207-89.3369 23.8545-89.3369 22.7227-88.19C21.606-87.0396 21.606-85.2559 22.7227-84.1089ZM51.1011-90.6738C51.1011-89.0889 52.3677-87.7583 53.9829-87.7583C55.583-87.7583 56.9136-89.0889 56.9136-90.6738L56.9136-98.2651C56.9136-99.8316 55.5493-101.162 53.9829-101.162C52.3677-101.162 51.1011-99.8316 51.1011-98.2651ZM75.7881-82.7974C74.6411-81.6841 74.6074-79.8853 75.7881-78.7349C76.9385-77.5693 78.7525-77.603 79.8355-78.7349L85.2281-84.1089C86.375-85.2559 86.375-87.0396 85.2281-88.19C84.0777-89.3369 82.294-89.3369 81.147-88.19ZM95.2847-54.0478C96.836-54.0478 98.1817-55.3633 98.1817-56.9297C98.1817-58.4961 96.836-59.8604 95.2847-59.8604L87.6934-59.8604C86.1084-59.8604 84.7779-58.5298 84.7779-56.9297C84.7779-55.3633 86.1084-54.0478 87.6934-54.0478ZM53.9829-80.6865C40.6489-80.6865 30.2061-70.9141 30.2061-58.7197C30.2061-45.2422 38.3926-41.6831 40.6001-17.6382C40.7315-16.3096 41.4219-15.5518 42.8262-15.5518L65.1245-15.5518C66.4951-15.5518 67.1856-16.3096 67.3169-17.6382C69.5396-41.6831 77.7632-45.2422 77.7632-58.7197C77.7632-70.9141 67.2681-80.6865 53.9829-80.6865ZM42.8277-8.05663L65.1533-8.05663C66.3203-8.05663 67.2583-8.96093 67.2583-10.1279C67.2583-11.3286 66.3203-12.1841 65.1533-12.1841L42.8277-12.1841C41.6421-12.1841 40.7715-11.3286 40.7715-10.1279C40.7715-8.96093 41.6421-8.05663 42.8277-8.05663ZM53.9981 2.18605C59.5562 2.18605 64.1582-0.622544 64.4209-4.72264L43.5601-4.72264C43.7891-0.622544 48.3726 2.18605 53.9981 2.18605Z" data-clipstroke-keyframes="0 0 0 0.27185845 0.0027994066 0 1 0.5045432 0.77213883 0 0 1.2704372 1.9970655 0 1 1.5024163 1.7716601 0 0 2.2706733 2.9997087 0 1 2.5034482 2.7720723 0 0 3.2708476 3.0016193 0 1 3.5025573 3.7770605 0 0 4.50216 4.772129 0 1 4.9996777 4.269242"/>
  </g>
  <g id="Thin-S" transform="matrix(1 0 0 1 805.492 696)">
   <path d="M19.8184-55.8496C20.709-55.8496 21.6016-56.6445 21.6016-57.5703C21.6016-58.5098 20.709-59.3399 19.8184-59.3399L11.4863-59.3399C10.5606-59.3399 9.76562-58.4961 9.76562-57.5703C9.76562-56.6445 10.5606-55.8496 11.4863-55.8496ZM27.7012-78.3145C28.3223-77.6582 29.4141-77.6445 30.1407-78.3145C30.8321-78.9844 30.8184-80.0625 30.1407-80.7754L24.2813-86.6485C23.6387-87.375 22.5332-87.375 21.8418-86.6485C21.1856-85.9785 21.1856-84.9356 21.8418-84.209ZM49.1992-88.6719C49.1992-87.7676 49.9453-86.9375 50.92-86.9375C51.8594-86.9375 52.6895-87.7676 52.6895-88.6719L52.6895-97.0039C52.6895-97.9297 51.8458-98.7598 50.92-98.7598C49.9453-98.7598 49.1992-97.9297 49.1992-97.0039ZM71.6641-80.7754C70.9376-80.0625 70.9239-78.9844 71.6641-78.3145C72.334-77.6094 73.4473-77.623 74.0899-78.3145L79.963-84.209C80.6895-84.9356 80.6895-85.9785 79.963-86.6485C79.293-87.375 78.2501-87.375 77.5235-86.6485ZM90.3399-55.8496C91.2305-55.8496 92.0958-56.6445 92.0958-57.5703C92.0958-58.4961 91.2305-59.3399 90.3399-59.3399L82.0079-59.3399C81.1036-59.3399 80.2735-58.5098 80.2735-57.5703C80.2735-56.6445 81.1036-55.8496 82.0079-55.8496ZM50.92-80.0059C38.2266-80.0059 28.2442-70.3535 28.2442-59.0801C28.2442-46.7637 36.1504-42.8242 38.1778-18.2988C38.2891-17.1504 38.8594-16.5527 40.1836-16.5527L61.6211-16.5527C62.9317-16.5527 63.502-17.1504 63.6133-18.2988C65.6758-42.8242 73.5391-46.7637 73.5391-59.0801C73.5391-70.3535 63.5645-80.0059 50.92-80.0059ZM40.4453-10.0586L61.4297-10.0586C62.3965-10.0586 63.1544-10.8027 63.1544-11.7695C63.1544-12.75 62.3965-13.4453 61.4297-13.4453L40.4453-13.4453C39.5-13.4453 38.7696-12.75 38.7696-11.7695C38.7696-10.8027 39.5-10.0586 40.4453-10.0586ZM50.9551-0.476526C56.3731-0.476526 60.4747-3.12497 60.6973-6.96481L41.1778-6.96481C41.3868-3.12497 45.5098-0.476526 50.9551-0.476526Z" data-clipstroke-keyframes="0 0 0 0.19656853 0.0025942372 0 1 0.5040467 0.7012465 0 0 1.1999966 1.9940958 0 1 1.5020049 1.6991485 0 0 2.194688 2.9948668 0 1 2.5020783 2.7013345 0 0 3.2022853 3.001693 0 1 3.5030627 3.7084484 0 0 4.502996 4.701834 0 1 4.994855 4.195323"/>
  </g>
  <g id="Ultralight-S" transform="matrix(1 0 0 1 510.339 696)">
   <path d="M19.603-56.7724C20.1553-56.7724 20.7813-57.3008 20.7813-57.8984C20.7813-58.4995 20.1553-59.0733 19.603-59.0733L10.8916-59.0733C10.294-59.0733 9.76562-58.4961 9.76562-57.8984C9.76562-57.3008 10.294-56.7724 10.8916-56.7724ZM27.5064-78.0991C27.8814-77.6787 28.5938-77.6753 29.105-78.0991C29.5708-78.523 29.5674-79.232 29.105-79.7398L22.9893-85.8589C22.5723-86.3702 21.8565-86.3702 21.3906-85.8589C20.9702-85.4351 20.9702-84.7715 21.3906-84.2603ZM48.2251-87.6465C48.2251-87.0908 48.7046-86.5171 49.3511-86.5171C49.9522-86.5171 50.526-87.0908 50.526-87.6465L50.526-96.3579C50.526-96.9556 49.9488-97.5293 49.3511-97.5293C48.7046-97.5293 48.2251-96.9556 48.2251-96.3579ZM69.5518-79.7398C69.0406-79.232 69.0372-78.523 69.5518-78.0991C69.9757-77.6299 70.7301-77.6333 71.1471-78.0991L77.2662-84.2603C77.7774-84.7715 77.7774-85.4351 77.2662-85.8589C76.8424-86.3702 76.1788-86.3702 75.6675-85.8589ZM87.8072-56.7724C88.3595-56.7724 88.9786-57.3008 88.9786-57.8984C88.9786-58.4961 88.3595-59.0733 87.8072-59.0733L79.0958-59.0733C78.5401-59.0733 77.9664-58.4995 77.9664-57.8984C77.9664-57.3008 78.5401-56.7724 79.0958-56.7724ZM49.3511-79.6572C36.9859-79.6572 27.2393-70.0664 27.2393-59.2646C27.2393-47.5429 35.002-43.4087 36.9371-18.6372C37.0381-17.581 37.5469-17.0654 38.8301-17.0654L59.8267-17.0654C61.1065-17.0654 61.6153-17.581 61.7164-18.6372C63.6968-43.4087 71.3756-47.5429 71.3756-59.2646C71.3756-70.0664 61.6675-79.6572 49.3511-79.6572ZM39.2251-11.0839L59.5225-11.0839C60.3868-11.0839 61.0523-11.7461 61.0523-12.6103C61.0523-13.478 60.3868-14.0913 59.5225-14.0913L39.2251-14.0913C38.4029-14.0913 37.7442-13.478 37.7442-12.6103C37.7442-11.7461 38.4029-11.0839 39.2251-11.0839ZM49.3965-1.84028C54.7427-1.84028 58.588-4.40669 58.7901-8.11324L39.9576-8.11324C40.1563-4.40669 44.0435-1.84028 49.3965-1.84028Z" data-clipstroke-keyframes="0 0 0 0.14447601 0.002115876 0 1 0.50333834 0.65244895 0 0 1.1439501 1.9916999 0 1 1.5019815 1.6408682 0 0 2.1421595 2.9916978 0 1 2.5007825 2.6526914 0 0 3.1461957 3.0013638 0 1 3.503552 3.6517746 0 0 4.5032406 4.6535153 0 1 4.9916844 4.144199"/>
  </g>
 </g>
</svg>
