<?xml version="1.0" encoding="UTF-8"?>
<!--Generator: Apple Native CoreSVG 341-->
<!DOCTYPE svg
PUBLIC "-//W3C//DTD SVG 1.1//EN"
       "http://www.w3.org/Graphics/SVG/1.1/DTD/svg11.dtd">
<svg version="1.1" xmlns="http://www.w3.org/2000/svg" xmlns:xlink="http://www.w3.org/1999/xlink" viewBox="0 0 3300 2200">
 <g id="Notes">
  <rect height="2200" id="artboard" style="fill:white;opacity:1" width="3300" x="0" y="0"/>
  <line style="fill:none;stroke:black;opacity:1;stroke-width:0.5;" x1="263" x2="3036" y1="292" y2="292"/>
  <text style="stroke:none;fill:black;font-family:sans-serif;font-size:13;font-weight:bold;" transform="matrix(1 0 0 1 263 322)">Weight/Scale Variations</text>
  <text style="stroke:none;fill:black;font-family:sans-serif;font-size:13;text-anchor:middle;" transform="matrix(1 0 0 1 559.711 322)">Ultralight</text>
  <text style="stroke:none;fill:black;font-family:sans-serif;font-size:13;text-anchor:middle;" transform="matrix(1 0 0 1 856.422 322)">Thin</text>
  <text style="stroke:none;fill:black;font-family:sans-serif;font-size:13;text-anchor:middle;" transform="matrix(1 0 0 1 1153.13 322)">Light</text>
  <text style="stroke:none;fill:black;font-family:sans-serif;font-size:13;text-anchor:middle;" transform="matrix(1 0 0 1 1449.84 322)">Regular</text>
  <text style="stroke:none;fill:black;font-family:sans-serif;font-size:13;text-anchor:middle;" transform="matrix(1 0 0 1 1746.56 322)">Medium</text>
  <text style="stroke:none;fill:black;font-family:sans-serif;font-size:13;text-anchor:middle;" transform="matrix(1 0 0 1 2043.27 322)">Semibold</text>
  <text style="stroke:none;fill:black;font-family:sans-serif;font-size:13;text-anchor:middle;" transform="matrix(1 0 0 1 2339.98 322)">Bold</text>
  <text style="stroke:none;fill:black;font-family:sans-serif;font-size:13;text-anchor:middle;" transform="matrix(1 0 0 1 2636.69 322)">Heavy</text>
  <text style="stroke:none;fill:black;font-family:sans-serif;font-size:13;text-anchor:middle;" transform="matrix(1 0 0 1 2933.4 322)">Black</text>
  <line style="fill:none;stroke:black;opacity:1;stroke-width:0.5;" x1="263" x2="3036" y1="1903" y2="1903"/>
  <g transform="matrix(0.2 0 0 0.2 263 1933)">
   <path d="m46.2402 4.15039c21.7773 0 39.4531-17.627 39.4531-39.4043s-17.6758-39.4043-39.4531-39.4043c-21.7285 0-39.4043 17.627-39.4043 39.4043s17.6758 39.4043 39.4043 39.4043Zm0-7.42188c-17.6758 0-31.9336-14.3066-31.9336-31.9824s14.2578-31.9824 31.9336-31.9824 31.9824 14.3066 31.9824 31.9824-14.3066 31.9824-31.9824 31.9824Zm3.61328-17.7734v-28.4668c0-2.24609-1.46484-3.75977-3.71094-3.75977-2.14844 0-3.61328 1.51367-3.61328 3.75977v28.4668c0 2.19727 1.46484 3.71094 3.61328 3.71094 2.24609 0 3.71094-1.51367 3.71094-3.71094Zm-17.8223-10.5957h28.418c2.19727 0 3.71094-1.46484 3.71094-3.61328 0-2.19727-1.51367-3.71094-3.71094-3.71094h-28.418c-2.24609 0-3.75977 1.51367-3.75977 3.71094 0 2.14844 1.51367 3.61328 3.75977 3.61328Z"/>
  </g>
  <g transform="matrix(0.2 0 0 0.2 281.506 1933)">
   <path d="m58.5449 14.5508c27.4902 0 49.8047-22.3145 49.8047-49.8047s-22.3145-49.8047-49.8047-49.8047-49.8047 22.3145-49.8047 49.8047 22.3145 49.8047 49.8047 49.8047Zm0-8.30078c-22.9492 0-41.5039-18.5547-41.5039-41.5039s18.5547-41.5039 41.5039-41.5039 41.5039 18.5547 41.5039 41.5039-18.5547 41.5039-41.5039 41.5039Zm4.05273-23.0957v-36.9141c0-2.49023-1.70898-4.19922-4.15039-4.19922-2.39258 0-4.05273 1.70898-4.05273 4.19922v36.9141c0 2.44141 1.66016 4.15039 4.05273 4.15039 2.44141 0 4.15039-1.66016 4.15039-4.15039Zm-22.5586-14.4043h36.9629c2.44141 0 4.15039-1.61133 4.15039-4.00391 0-2.44141-1.70898-4.15039-4.15039-4.15039h-36.9629c-2.49023 0-4.15039 1.70898-4.15039 4.15039 0 2.39258 1.66016 4.00391 4.15039 4.00391Z"/>
  </g>
  <g transform="matrix(0.2 0 0 0.2 304.924 1933)">
   <path d="m74.8535 28.3203c35.1074 0 63.623-28.4668 63.623-63.5742s-28.5156-63.623-63.623-63.623-63.5742 28.5156-63.5742 63.623 28.4668 63.5742 63.5742 63.5742Zm0-9.08203c-30.127 0-54.4922-24.3652-54.4922-54.4922s24.3652-54.4922 54.4922-54.4922 54.4922 24.3652 54.4922 54.4922-24.3652 54.4922-54.4922 54.4922Zm4.44336-30.3223v-48.4863c0-2.73438-1.85547-4.63867-4.54102-4.63867-2.58789 0-4.44336 1.9043-4.44336 4.63867v48.4863c0 2.68555 1.85547 4.58984 4.44336 4.58984 2.68555 0 4.54102-1.85547 4.54102-4.58984Zm-28.7109-19.7754h48.4863c2.68555 0 4.58984-1.80664 4.58984-4.39453 0-2.73438-1.85547-4.58984-4.58984-4.58984h-48.4863c-2.73438 0-4.58984 1.85547-4.58984 4.58984 0 2.58789 1.85547 4.39453 4.58984 4.39453Z"/>
  </g>
  <text style="stroke:none;fill:black;font-family:sans-serif;font-size:13;font-weight:bold;" transform="matrix(1 0 0 1 263 1953)">Design Variations</text>
  <text style="stroke:none;fill:black;font-family:sans-serif;font-size:13;" transform="matrix(1 0 0 1 263 1971)">Symbols are supported in up to nine weights and three scales.</text>
  <text style="stroke:none;fill:black;font-family:sans-serif;font-size:13;" transform="matrix(1 0 0 1 263 1989)">For optimal layout with text and other symbols, vertically align</text>
  <text style="stroke:none;fill:black;font-family:sans-serif;font-size:13;" transform="matrix(1 0 0 1 263 2007)">symbols with the adjacent text.</text>
  <line style="fill:none;stroke:#00AEEF;stroke-width:0.5;opacity:1.0;" x1="776" x2="776" y1="1919" y2="1933"/>
  <g transform="matrix(0.2 0 0 0.2 776 1933)">
   <path d="m16.5527 0.78125c2.58789 0 3.85742-0.976562 4.78516-3.71094l20.5566-57.5195h0.244141l20.6055 57.5195c0.927734 2.73438 2.19727 3.71094 4.73633 3.71094 2.58789 0 4.24805-1.5625 4.24805-4.00391 0-0.830078-0.146484-1.61133-0.537109-2.63672l-22.9004-60.9863c-1.12305-2.97852-3.125-4.49219-6.25-4.49219-3.02734 0-5.07812 1.46484-6.15234 4.44336l-22.9004 61.084c-0.390625 1.02539-0.537109 1.80664-0.537109 2.63672 0 2.44141 1.5625 3.95508 4.10156 3.95508Zm10.2051-20.9473h30.6641c2.00195 0 3.66211-1.66016 3.66211-3.66211 0-2.05078-1.66016-3.66211-3.66211-3.66211h-30.6641c-2.00195 0-3.66211 1.61133-3.66211 3.66211 0 2.00195 1.66016 3.66211 3.66211 3.66211Z"/>
  </g>
  <line style="fill:none;stroke:#00AEEF;stroke-width:0.5;opacity:1.0;" x1="792.836" x2="792.836" y1="1919" y2="1933"/>
  <text style="stroke:none;fill:black;font-family:sans-serif;font-size:13;font-weight:bold;" transform="matrix(1 0 0 1 776 1953)">Margins</text>
  <text style="stroke:none;fill:black;font-family:sans-serif;font-size:13;" transform="matrix(1 0 0 1 776 1971)">Leading and trailing margins on the left and right side of each symbol</text>
  <text style="stroke:none;fill:black;font-family:sans-serif;font-size:13;" transform="matrix(1 0 0 1 776 1989)">can be adjusted by modifying the x-location of the margin guidelines.</text>
  <text style="stroke:none;fill:black;font-family:sans-serif;font-size:13;" transform="matrix(1 0 0 1 776 2007)">Modifications are automatically applied proportionally to all</text>
  <text style="stroke:none;fill:black;font-family:sans-serif;font-size:13;" transform="matrix(1 0 0 1 776 2025)">scales and weights.</text>
  <g transform="matrix(0.2 0 0 0.2 1289 1933)">
   <path d="m14.209 13.1348 7.86133 7.86133c4.29688 4.39453 9.32617 4.10156 13.8672-1.02539l60.6934-68.2129-4.88281-4.88281-60.2539 67.6758c-1.80664 1.95312-3.4668 2.44141-5.81055 0.0976562l-5.17578-5.12695c-2.29492-2.29492-1.80664-3.95508 0.195312-5.81055l67.4805-62.1582-4.88281-4.83398-68.0664 62.5977c-4.98047 4.58984-5.32227 9.47266-1.02539 13.8184Zm44.873-97.4609c-2.05078 2.00195-2.24609 4.88281-1.07422 6.78711 1.12305 1.80664 3.4668 3.02734 6.5918 2.24609 5.85938-1.66016 12.5977-2.39258 18.8965 0.927734l-2.68555 7.12891c-1.61133 4.00391-0.732422 6.88477 1.70898 9.42383l10.2539 10.3027c2.34375 2.39258 4.54102 2.44141 7.08008 1.95312l4.44336-0.732422 2.58789 2.53906-0.195312 2.24609c-0.0976562 2.29492 0.537109 4.29688 2.7832 6.49414l3.36914 3.32031c2.29492 2.29492 5.51758 2.49023 7.8125 0.195312l12.9883-13.0371c2.29492-2.34375 2.14844-5.37109-0.195312-7.66602l-3.41797-3.41797c-2.19727-2.19727-4.05273-3.02734-6.34766-2.88086l-2.34375 0.244141-2.44141-2.44141 1.02539-4.6875c0.634766-2.73438-0.244141-4.98047-2.88086-7.61719l-11.2793-11.1816c-12.9395-12.8418-35.5957-11.0352-46.6797-0.146484Zm7.08008 2.05078c8.78906-6.39648 25.9766-5.66406 33.6914 1.95312l12.3047 12.207c1.02539 1.02539 1.2207 1.80664 0.927734 3.32031l-1.46484 6.64062 6.73828 6.68945 4.39453-0.244141c1.12305-0.0488281 1.51367 0.0488281 2.34375 0.878906l2.53906 2.49023-10.8398 10.8398-2.49023-2.49023c-0.830078-0.878906-0.976562-1.2207-0.927734-2.39258l0.292969-4.3457-6.68945-6.73828-6.83594 1.17188c-1.41602 0.292969-2.05078 0.195312-3.17383-0.878906l-8.93555-8.88672c-1.07422-1.02539-1.17188-1.70898-0.488281-3.36914l4.58984-11.4746c-6.10352-6.34766-17.041-7.51953-25.5859-4.58984-0.683594 0.244141-0.927734-0.390625-0.390625-0.78125Z"/>
  </g>
  <text style="stroke:none;fill:black;font-family:sans-serif;font-size:13;font-weight:bold;" transform="matrix(1 0 0 1 1289 1953)">Exporting</text>
  <text style="stroke:none;fill:black;font-family:sans-serif;font-size:13;" transform="matrix(1 0 0 1 1289 1971)">Symbols should be outlined when exporting to ensure the</text>
  <text style="stroke:none;fill:black;font-family:sans-serif;font-size:13;" transform="matrix(1 0 0 1 1289 1989)">design is preserved when submitting to Xcode.</text>
  <text id="template-version" style="stroke:none;fill:black;font-family:sans-serif;font-size:13;text-anchor:end;" transform="matrix(1 0 0 1 3036 1933)">Template v.2.0</text>
  <text style="stroke:none;fill:black;font-family:sans-serif;font-size:13;text-anchor:end;" transform="matrix(1 0 0 1 3036 1951)">Requires Xcode 12 or greater</text>
  <text id="descriptive-name" style="stroke:none;fill:black;font-family:sans-serif;font-size:13;text-anchor:end;" transform="matrix(1 0 0 1 3036 1969)">Generated from arrow.up.right</text>
  <text style="stroke:none;fill:black;font-family:sans-serif;font-size:13;text-anchor:end;" transform="matrix(1 0 0 1 3036 1987)">Typeset at 100.0 points</text>
  <text style="stroke:none;fill:black;font-family:sans-serif;font-size:13;" transform="matrix(1 0 0 1 263 726)">Small</text>
  <text style="stroke:none;fill:black;font-family:sans-serif;font-size:13;" transform="matrix(1 0 0 1 263 1156)">Medium</text>
  <text style="stroke:none;fill:black;font-family:sans-serif;font-size:13;" transform="matrix(1 0 0 1 263 1586)">Large</text>
 </g>
 <g id="Guides">
  <g id="H-reference" style="fill:#27AAE1;stroke:none;" transform="matrix(1 0 0 1 339 696)">
   <path d="M0.993654 0L3.63775 0L29.3281-67.1323L30.0303-67.1323L30.0303-70.459L28.1226-70.459ZM11.6885-24.4799L46.9815-24.4799L46.2315-26.7285L12.4385-26.7285ZM55.1196 0L57.7637 0L30.6382-70.459L29.4326-70.459L29.4326-67.1323Z"/>
  </g>
  <line id="Baseline-S" style="fill:none;stroke:#27AAE1;opacity:1;stroke-width:0.5;" x1="263" x2="3036" y1="696" y2="696"/>
  <line id="Capline-S" style="fill:none;stroke:#27AAE1;opacity:1;stroke-width:0.5;" x1="263" x2="3036" y1="625.541" y2="625.541"/>
  <g id="H-reference" style="fill:#27AAE1;stroke:none;" transform="matrix(1 0 0 1 339 1126)">
   <path d="M0.993654 0L3.63775 0L29.3281-67.1323L30.0303-67.1323L30.0303-70.459L28.1226-70.459ZM11.6885-24.4799L46.9815-24.4799L46.2315-26.7285L12.4385-26.7285ZM55.1196 0L57.7637 0L30.6382-70.459L29.4326-70.459L29.4326-67.1323Z"/>
  </g>
  <line id="Baseline-M" style="fill:none;stroke:#27AAE1;opacity:1;stroke-width:0.5;" x1="263" x2="3036" y1="1126" y2="1126"/>
  <line id="Capline-M" style="fill:none;stroke:#27AAE1;opacity:1;stroke-width:0.5;" x1="263" x2="3036" y1="1055.54" y2="1055.54"/>
  <g id="H-reference" style="fill:#27AAE1;stroke:none;" transform="matrix(1 0 0 1 339 1556)">
   <path d="M0.993654 0L3.63775 0L29.3281-67.1323L30.0303-67.1323L30.0303-70.459L28.1226-70.459ZM11.6885-24.4799L46.9815-24.4799L46.2315-26.7285L12.4385-26.7285ZM55.1196 0L57.7637 0L30.6382-70.459L29.4326-70.459L29.4326-67.1323Z"/>
  </g>
  <line id="Baseline-L" style="fill:none;stroke:#27AAE1;opacity:1;stroke-width:0.5;" x1="263" x2="3036" y1="1556" y2="1556"/>
  <line id="Capline-L" style="fill:none;stroke:#27AAE1;opacity:1;stroke-width:0.5;" x1="263" x2="3036" y1="1485.54" y2="1485.54"/>
  <line id="right-margin" style="fill:none;stroke:#00AEEF;stroke-width:0.5;opacity:1.0;" x1="1498.37" x2="1498.37" y1="1030.79" y2="1150.12"/>
  <line id="left-margin" style="fill:none;stroke:#00AEEF;stroke-width:0.5;opacity:1.0;" x1="1401.32" x2="1401.32" y1="1030.79" y2="1150.12"/>
 </g>
 <g id="Symbols">
  <g id="Black-L" transform="matrix(1 0 0 1 2866.5 1556)">
   <path d="M19.7256 12.2442C24.1601 16.5983 30.4447 16.8563 35.7785 11.7185L87.7289-40.1723L100.369-54.0212C105.073-59.2122 104.369-65.2174 100.839-68.8666C97.2295-72.6511 91.0479-73.588 85.6828-68.6902L71.8327-56.0892L19.9408-4.11806C14.2589 1.68066 15.449 8.14162 19.7256 12.2442ZM96.1764-35.5539L96.1764-11.5207C96.1764-5.02615 100.694-0.0566538 106.726-0.0566538C112.774-0.0566538 117.664-5.13892 117.664-11.5455L117.719-74.3317C117.719-81.2472 113.049-85.979 106.013-85.979L43.1672-85.979C36.6605-85.979 31.6991-81.0887 31.6991-75.021C31.6991-69.091 36.7062-64.5159 43.2007-64.5159L67.055-64.5159L97.7453-66.004Z" data-clipstroke-keyframes="0 0 0 0.07145098 0.92669636 0 1 0.43355438 0.5646262"/>
  </g>
  <g id="Heavy-L" transform="matrix(1 0 0 1 2570.83 1556)">
   <path d="M19.2562 11.5979C23.1531 15.4143 28.6583 15.6398 33.2659 11.1963L88.2883-43.7758L100.927-57.5379C104.982-61.9745 104.43-67.195 101.295-70.43C98.086-73.7732 92.726-74.4984 88.1612-70.2905L74.3935-57.7008L19.4158-2.64823C14.5517 2.30511 15.4799 7.94986 19.2562 11.5979ZM96.6676-35.9561L96.6676-11.6166C96.6676-6.00335 100.685-1.60744 105.987-1.60744C111.274-1.60744 115.595-6.04667 115.595-11.6927L115.623-74.6953C115.623-80.7587 111.542-84.9302 105.343-84.9302L42.2904-84.9302C36.5393-84.9302 32.2353-80.6091 32.2353-75.2981C32.2353-70.1065 36.6456-66.0499 42.2589-66.0499L66.0285-66.0499L98.1851-67.4579Z" data-clipstroke-keyframes="0 0 0 0.062588826 0.9359139 0 1 0.44218123 0.55635184"/>
  </g>
  <g id="Bold-L" transform="matrix(1 0 0 1 2275.34 1556)">
   <path d="M18.6723 10.8509C21.9007 13.9989 26.4379 14.1934 30.1688 10.5881L89.0693-48.27L101.589-61.7903C104.867-65.3268 104.477-69.5865 101.849-72.2993C99.1539-75.082 94.7934-75.5757 91.1825-72.1984L77.6489-59.7284L18.7776-0.789891C14.898 3.14818 15.5332 7.7862 18.6723 10.8509ZM97.4311-37.2678L97.4311-11.732C97.4311-7.1875 100.811-3.51352 105.207-3.51352C109.556-3.51352 113.163-7.16115 113.163-11.8547L113.152-75.2305C113.152-80.2337 109.794-83.7061 104.647-83.7061L41.2292-83.7061C36.4304-83.7061 32.926-80.0993 32.926-75.7257C32.926-71.4485 36.5912-68.0522 41.1357-68.0522L65.4611-68.0522L98.8349-69.3305Z" data-clipstroke-keyframes="0 0 0 0.051045496 0.94717926 0 1 0.45299307 0.5452475"/>
  </g>
  <g id="Semibold-L" transform="matrix(1 0 0 1 1979.47 1556)">
   <path d="M18.2698 10.3359C21.0374 13.0231 24.9072 13.1962 28.0337 10.1688L89.6077-51.3682L102.045-64.7219C104.788-67.6379 104.509-71.2352 102.231-73.588C99.89-75.9843 96.2186-76.3184 93.2653-73.5137L79.8932-61.1262L18.3377 0.491239C15.1367 3.72938 15.57 7.67337 18.2698 10.3359ZM97.9575-38.172L97.9575-11.8115C97.9575-8.00384 100.899-4.82756 104.669-4.82756C108.372-4.82756 111.486-7.92946 111.486-11.9664L111.449-75.5995C111.449-79.8718 108.589-82.8622 104.168-82.8622L40.4976-82.8622C36.3554-82.8622 33.4022-79.7479 33.4022-76.0206C33.4022-72.3737 36.5537-69.4326 40.3613-69.4326L65.0699-69.4326L99.2829-70.6215Z" data-clipstroke-keyframes="0 0 0 0.04358184 0.955693 0 1 0.46060887 0.53868157"/>
  </g>
  <g id="Medium-L" transform="matrix(1 0 0 1 1683.4 1556)">
   <path d="M17.9646 9.94545C20.3828 12.2832 23.7465 12.4401 26.4148 9.85083L90.016-53.7175L102.391-66.9448C104.727-69.3903 104.534-72.4853 102.52-74.5651C100.448-76.6684 97.2992-76.8816 94.8447-74.5111L81.5948-62.1861L18.0041 1.46264C15.3177 4.17008 15.5979 7.58782 17.9646 9.94545ZM98.3567-38.8577L98.3567-11.8718C98.3567-8.62282 100.965-5.82392 104.261-5.82392C107.474-5.82392 110.215-8.51203 110.215-12.0511L110.158-75.8793C110.158-79.5973 107.675-82.2224 103.804-82.2224L39.9429-82.2224C36.2985-82.2224 33.7632-79.4814 33.7632-76.2441C33.7632-73.0753 36.5252-70.4793 39.7742-70.4793L64.7733-70.4793L99.6226-71.6004Z" data-clipstroke-keyframes="0 0 0 0.03787884 0.9616121 0 1 0.46612537 0.5333865"/>
  </g>
  <g id="Regular-L" transform="matrix(1 0 0 1 1387.52 1556)">
   <path d="M17.5665 9.43612C19.5289 11.3181 22.2326 11.4539 24.3031 9.43612L90.5485-56.7816L102.842-69.8442C104.649-71.676 104.566-74.1159 102.897-75.8396C101.176-77.5608 98.7088-77.6161 96.9046-75.8119L83.8144-63.5685L17.569 2.7297C15.5538 4.7449 15.6342 7.47623 17.5665 9.43612ZM98.8773-39.7521L98.8773-11.9505C98.8773-9.43019 101.051-7.12352 103.729-7.12352C106.302-7.12352 108.556-9.27191 108.556-12.1615L108.473-76.2442C108.473-79.2394 106.483-81.3878 103.33-81.3878L39.2194-81.3878C36.2243-81.3878 34.2342-79.1339 34.2342-76.5357C34.2342-73.9903 36.4881-71.8445 39.0084-71.8445L64.3864-71.8445L100.066-72.8772Z" data-clipstroke-keyframes="0 0 0 0.030422118 0.96934843 0 1 0.473326 0.52647966"/>
  </g>
  <g id="Light-L" transform="matrix(1 0 0 1 1091.23 1556)">
   <path d="M17.1466 9.26436C18.6319 10.6692 20.6485 10.8431 22.261 9.26436L91.6555-60.0834L103.109-72.1153C104.553-73.5464 104.413-75.3946 103.203-76.6984C101.959-77.9425 100.064-78.036 98.6796-76.6517L86.6009-65.1717L17.2064 4.25652C15.6874 5.77551 15.7678 7.83885 17.1466 9.26436ZM100.404-45.8975L100.404-12.0077C100.404-10.0791 102.024-8.34498 104.054-8.34498C106.016-8.34498 107.717-9.97806 107.717-12.1424L107.576-77.1603C107.576-79.3921 106.044-81.0252 103.711-81.0252L38.6469-81.0252C36.4151-81.0252 34.8831-79.3247 34.8831-77.3755C34.8831-75.4599 36.5835-73.8866 38.5122-73.8866L68.5279-73.8866L101.192-74.633Z" data-clipstroke-keyframes="0 0 0 0.023423629 0.9766113 0 1 0.4799755 0.52000934"/>
  </g>
  <g id="Thin-L" transform="matrix(1 0 0 1 795.077 1556)">
   <path d="M16.5913 9.03718C17.4455 9.81102 18.5534 10.0354 19.5601 9.03718L93.1195-64.4502L103.463-75.1191C104.427-76.0201 104.211-77.0858 103.607-77.8343C102.994-78.4473 101.856-78.5913 101.027-77.7623L90.2862-67.292L16.7268 6.27586C15.8641 7.13856 15.9445 8.31845 16.5913 9.03718ZM102.423-54.0254L102.423-12.0835C102.423-10.9373 103.311-9.96045 104.483-9.96045C105.637-9.96045 106.606-10.912 106.606-12.1172L106.39-78.3719C106.39-79.594 105.464-80.5456 104.216-80.5456L37.8896-80.5456C36.6675-80.5456 35.7413-79.5771 35.7413-78.4861C35.7413-77.4035 36.7097-76.5875 37.8559-76.5875L74.0053-76.5875L102.681-76.9553Z" data-clipstroke-keyframes="0 0 0 0.014126777 0.9871159 0 1 0.4891303 0.5119891"/>
  </g>
  <g id="Ultralight-L" transform="matrix(1 0 0 1 498.651 1556)">
   <path d="M16.3068 8.92082C16.8379 9.37145 17.4803 9.62169 18.1767 8.92082L93.8694-66.6869L103.644-76.6576C104.363-77.2871 104.108-77.952 103.814-78.4161C103.524-78.7059 102.774-78.8757 102.229-78.3312L92.1738-68.378L16.4811 7.31016C15.9546 7.83672 16.035 8.56409 16.3068 8.92082ZM103.458-58.1884L103.458-12.1222C103.458-11.3769 103.971-10.7879 104.703-10.7879C105.444-10.7879 106.037-11.3904 106.037-12.1043L105.782-78.9925C105.782-79.6974 105.166-80.2999 104.475-80.2999L37.5017-80.2999C36.7968-80.2999 36.1809-79.7064 36.1809-79.055C36.1809-78.399 36.7744-77.9709 37.5197-77.9709L76.8109-77.9709L103.444-78.1447Z" data-clipstroke-keyframes="0 0 0 0.00857993 0.9915672 0 1 0.4934658 0.50653857"/>
  </g>
  <g id="Black-M" transform="matrix(1 0 0 1 2880.73 1126)">
   <path d="M15.6287 2.08246C19.4618 5.85328 24.9073 6.0863 29.6018 1.5686L67.6364-36.4092L77.3167-47.0736C81.4699-51.6893 80.7856-56.9361 77.7729-60.0624C74.6977-63.3089 69.2799-64.2219 64.4926-59.8914L53.8285-50.2226L15.851-12.1825C10.8134-7.03068 11.9605-1.41413 15.6287 2.08246ZM74.2966-35.9679L74.2966-16.7866C74.2966-11.0778 78.1517-6.81232 83.3631-6.81232C88.6206-6.81232 92.8235-11.2326 92.8235-16.7514L92.8814-65.3352C92.8814-71.3218 88.8202-75.3995 82.76-75.3995L34.1194-75.3995C28.5325-75.3995 24.1858-71.1966 24.1858-65.9333C24.1858-60.7898 28.5029-56.8773 34.2117-56.8773L53.3937-56.8773L75.502-58.0601Z" data-clipstroke-keyframes="0 0 0 0.08004471 0.91776395 0 1 0.4251784 0.5726377"/>
  </g>
  <g id="Heavy-M" transform="matrix(1 0 0 1 2585 1126)">
   <path d="M15.2086 1.46656C18.5601 4.75574 23.3072 4.95346 27.334 1.07397L68.0812-39.6273L77.8376-50.3019C81.3897-54.2171 80.8595-58.7513 78.1911-61.5114C75.4628-64.3706 70.7954-65.0731 66.7516-61.3783L56.0748-51.6501L15.3712-10.8865C11.0873-6.51532 11.9784-1.63505 15.2086 1.46656ZM74.6359-35.794L74.6359-16.8751C74.6359-11.9732 78.053-8.21563 82.6115-8.21563C87.1809-8.21563 90.8784-12.0548 90.8784-16.8971L90.9152-65.6062C90.9152-70.8302 87.387-74.4077 82.0701-74.4077L33.3151-74.4077C28.3964-74.4077 24.65-70.7101 24.65-66.1267C24.65-61.6469 28.4348-58.1884 33.3367-58.1884L52.0081-58.1884L75.828-59.3194Z" data-clipstroke-keyframes="0 0 0 0.06971809 0.92850137 0 1 0.43524322 0.56299764"/>
  </g>
  <g id="Bold-M" transform="matrix(1 0 0 1 2289.38 1126)">
   <path d="M14.7387 0.77759C17.5514 3.52798 21.5173 3.6862 24.7971 0.520656L68.5787-43.2273L78.4203-53.9132C81.3001-57.0448 80.9421-60.7819 78.659-63.1324C76.3187-65.5583 72.4908-66.0254 69.2786-63.0416L58.5876-53.247L14.8346-9.43674C11.3937-5.93881 11.9984-1.88217 14.7387 0.77759ZM75.0155-35.5996L75.0155-16.9741C75.0155-12.9748 77.9427-9.78544 81.7708-9.78544C85.5703-9.78544 88.7026-12.9746 88.7026-17.06L88.7157-65.9093C88.7157-70.2803 85.7837-73.2982 81.2982-73.2982L32.4153-73.2982C28.2441-73.2982 25.1693-70.166 25.1693-66.343C25.1693-62.6057 28.3587-59.6551 32.3579-59.6551L50.4582-59.6551L76.1927-60.7282Z" data-clipstroke-keyframes="0 0 0 0.05811116 0.94056726 0 1 0.44653416 0.5521894"/>
  </g>
  <g id="Semibold-M" transform="matrix(1 0 0 1 1993.43 1126)">
   <path d="M14.4148 0.302616C16.856 2.68158 20.2833 2.81256 23.0482 0.139206L68.9217-45.7091L78.822-56.4028C81.2383-58.9942 80.9991-62.1818 78.9815-64.2499C76.9087-66.3771 73.6595-66.6819 71.0207-64.1883L60.3199-54.3478L14.4646-8.43728C11.605-5.54137 12.0122-2.05254 14.4148 0.302616ZM75.2771-35.4655L75.2771-17.0424C75.2771-13.6654 77.8666-10.8677 81.1913-10.8677C84.46-10.8677 87.2025-13.6087 87.2025-17.1724L87.1994-66.1182C87.1994-69.9012 84.6784-72.5333 80.7661-72.5333L31.795-72.5333C28.1391-72.5333 25.5274-69.7908 25.5274-66.4921C25.5274-63.2667 28.3062-60.6663 31.6832-60.6663L49.3897-60.6663L76.4441-61.6993Z" data-clipstroke-keyframes="0 0 0 0.049481142 0.94881916 0 1 0.45452932 0.5438381"/>
  </g>
  <g id="Medium-M" transform="matrix(1 0 0 1 1697.29 1126)">
   <path d="M14.1691-0.0575292C16.3288 2.0398 19.3476 2.15013 21.722-0.150025L69.1817-47.5908L79.1266-58.2905C81.1914-60.4723 81.0423-63.2432 79.226-65.0972C77.3561-66.998 74.5457-67.1796 72.3417-65.0578L61.6334-55.1826L14.184-7.67945C11.7651-5.24002 12.0227-2.18172 14.1691-0.0575292ZM75.4755-35.3639L75.4755-17.0941C75.4755-14.189 77.8089-11.6882 80.7518-11.6882C83.6182-11.6882 86.0652-14.0895 86.0652-17.2575L86.0497-66.2766C86.0497-69.6137 83.8403-71.9534 80.3627-71.9534L31.3247-71.9534C28.0595-71.9534 25.7988-69.5063 25.7988-66.6052C25.7988-63.768 28.2664-61.4329 31.1715-61.4329L48.5795-61.4329L76.6348-62.4357Z" data-clipstroke-keyframes="0 0 0 0.043462425 0.9558051 0 1 0.46073884 0.53861487"/>
  </g>
  <g id="Regular-M" transform="matrix(1 0 0 1 1401.32 1126)">
   <path d="M13.8487-0.527284C15.641 1.20269 18.1272 1.2861 19.9923-0.527284L69.5209-50.0453L79.5239-60.7527C81.1303-62.4003 81.0986-64.6277 79.545-66.2024C77.9396-67.8078 75.7017-67.8289 74.0646-66.1919L63.3467-56.2713L13.8181-6.69098C11.9741-4.84694 12.0364-2.35021 13.8487-0.527284ZM75.7343-35.2313L75.7343-17.1616C75.7343-14.8719 77.7336-12.7586 80.1786-12.7586C82.5201-12.7586 84.5817-14.7167 84.5817-17.3686L84.55-66.4833C84.55-69.2388 82.7472-71.1969 79.8364-71.1969L30.7112-71.1969C27.9557-71.1969 26.1529-69.1353 26.1529-66.7526C26.1529-64.4217 28.2145-62.433 30.5042-62.433L47.5228-62.433L76.8834-63.3962Z" data-clipstroke-keyframes="0 0 0 0.03554739 0.96401924 0 1 0.46840695 0.53127414"/>
  </g>
  <g id="Light-M" transform="matrix(1 0 0 1 1104.99 1126)">
   <path d="M13.4723-0.681282C14.8368 0.620919 16.707 0.738547 18.1615-0.681282L70.5134-53.0055L79.7634-62.7889C81.0447-64.0772 80.9617-65.7742 79.8188-66.9724C78.6412-68.15 76.9165-68.2053 75.656-66.9448L65.8449-57.7087L13.493-5.3221C12.0938-3.92295 12.1561-2.02511 13.4723-0.681282ZM77.1032-40.741L77.1032-17.213C77.1032-15.4537 78.6063-13.8537 80.4695-13.8537C82.2634-13.8537 83.8288-15.3498 83.8288-17.3515L83.7458-67.3046C83.7458-69.3757 82.3536-70.8718 80.1786-70.8718L30.1979-70.8718C28.1268-70.8718 26.7346-69.3064 26.7346-67.5055C26.7346-65.7392 28.3-64.2638 30.0593-64.2638L51.2359-64.2638L77.893-64.9704Z" data-clipstroke-keyframes="0 0 0 0.027475184 0.9724087 0 1 0.4761355 0.5237444"/>
  </g>
  <g id="Thin-M" transform="matrix(1 0 0 1 808.775 1126)">
   <path d="M12.9744-0.884957C13.7732-0.148522 14.8286 0.0143682 15.74-0.884957L71.826-56.9206L80.0803-65.482C80.9315-66.295 80.7807-67.2904 80.1809-67.9908C79.569-68.6026 78.5233-68.7032 77.7606-67.9405L69.149-59.6096L13.063-3.51165C12.2522-2.7009 12.3145-1.59512 12.9744-0.884957ZM78.9136-48.0281L78.9136-17.2809C78.9136-16.2231 79.7604-15.302 80.8542-15.302C81.9239-15.302 82.833-16.1871 82.833-17.3289L82.6821-68.3909C82.6821-69.5567 81.8331-70.4418 80.6312-70.4418L29.519-70.4418C28.3531-70.4418 27.5041-69.5327 27.5041-68.5013C27.5041-67.4818 28.4132-66.6853 29.4709-66.6853L56.1467-66.6853L79.2282-67.0524Z" data-clipstroke-keyframes="0 0 0 0.01672721 0.9835438 0 1 0.48626426 0.51389956"/>
  </g>
  <g id="Ultralight-M" transform="matrix(1 0 0 1 512.319 1126)">
   <path d="M12.7194-0.989279C13.2284-0.542625 13.8666-0.356553 14.4997-0.989279L72.4982-58.9259L80.2425-66.8613C80.8736-67.4309 80.6879-68.067 80.3663-68.5124C80.0443-68.8345 79.3463-68.9582 78.8386-68.4505L70.8413-60.5833L12.8428-2.58435C12.3334-2.07497 12.3957-1.37489 12.7194-0.989279ZM79.8409-51.7605L79.8409-17.3156C79.8409-16.6172 80.3516-16.0439 81.0512-16.0439C81.7501-16.0439 82.323-16.616 82.323-17.3173L82.1374-68.9473C82.1374-69.6495 81.5665-70.2216 80.8631-70.2216L29.1712-70.2216C28.469-70.2216 27.8982-69.6486 27.8982-69.0113C27.8982-68.3743 28.4711-67.9256 29.1695-67.9256L58.662-67.9256L79.9121-68.1188Z" data-clipstroke-keyframes="0 0 0 0.010312189 0.9898227 0 1 0.491904 0.5080955"/>
  </g>
  <g id="Black-S" transform="matrix(1 0 0 1 2891.85 696)">
   <path d="M12.3535-5.81055C15.4785-2.73438 19.9219-2.53906 23.7793-6.25L52.9297-35.3516L60.4492-43.6523C63.8672-47.4609 63.2812-51.7578 60.8398-54.2969C58.3496-56.9336 53.9062-57.7148 49.9512-54.1504L41.6504-46.6309L12.5488-17.4805C8.39844-13.2324 9.375-8.64258 12.3535-5.81055ZM58.2031-36.1816L58.2031-20.752C58.2031-16.0645 61.3281-12.5977 65.5762-12.5977C69.873-12.5977 73.291-16.2109 73.291-20.7031L73.3398-58.7891C73.3398-63.6719 70.0195-66.9922 65.0879-66.9922L26.9531-66.9922C22.4121-66.9922 18.8477-63.5742 18.8477-59.2773C18.8477-55.0781 22.3633-51.9043 27.0508-51.9043L42.4805-51.9043L59.1309-52.832Z" data-clipstroke-keyframes="0 0 0 0.08343745 0.9142406 0 1 0.42186993 0.5757925"/>
  </g>
  <g id="Heavy-S" transform="matrix(1 0 0 1 2595.93 696)">
   <path d="M12.0424-6.31762C14.8101-3.59871 18.7349-3.43797 22.0737-6.65336L53.1832-37.7256L60.8641-46.1532C63.8096-49.4086 63.3619-53.1638 61.1625-55.4378C58.9143-57.7979 55.0472-58.3948 51.6798-55.3259L43.2523-47.6681L12.18-16.547C8.6174-12.9097 9.375-8.87307 12.0424-6.31762ZM58.3184-35.3288L58.3184-20.8211C58.3184-16.7559 61.1322-13.6579 64.8962-13.6579C68.6745-13.6579 71.7237-16.8333 71.7237-20.8299L71.761-58.9158C71.761-63.2339 68.844-66.1855 64.454-66.1855L26.3308-66.1855C22.2738-66.1855 19.1703-63.1363 19.1703-59.3465C19.1703-55.6428 22.2941-52.7917 26.3593-52.7917L40.8209-52.7917L59.2807-53.7079Z" data-clipstroke-keyframes="0 0 0 0.07347662 0.9245885 0 1 0.4315801 0.5665225"/>
  </g>
  <g id="Bold-S" transform="matrix(1 0 0 1 2300.1 696)">
   <path d="M11.6943-6.88477C14.0625-4.56543 17.4072-4.44336 20.166-7.10449L53.4668-40.3809L61.3281-48.9502C63.7451-51.5869 63.4521-54.7363 61.5234-56.7139C59.5459-58.7646 56.3232-59.1553 53.6133-56.6406L45.0439-48.8281L11.7676-15.5029C8.8623-12.5488 9.375-9.13086 11.6943-6.88477ZM58.4473-34.375L58.4473-20.8984C58.4473-17.5293 60.9131-14.8438 64.1357-14.8438C67.334-14.8438 69.9707-17.5293 69.9707-20.9717L69.9951-59.0576C69.9951-62.7441 67.5293-65.2832 63.7451-65.2832L25.6348-65.2832C22.1191-65.2832 19.5312-62.6465 19.5312-59.4238C19.5312-56.2744 22.2168-53.7842 25.5859-53.7842L38.9648-53.7842L59.4482-54.6875Z" data-clipstroke-keyframes="0 0 0 0.062290654 0.9362096 0 1 0.44246712 0.55612916"/>
  </g>
  <g id="Semibold-S" transform="matrix(1 0 0 1 2004 696)">
   <path d="M11.4544-7.27578C13.5471-5.23193 16.4919-5.13652 18.8508-7.41553L53.6623-42.2115L61.648-50.8786C63.7007-53.0888 63.5144-55.8205 61.7723-57.5937C59.9813-59.4312 57.203-59.6796 54.9463-57.5471L46.2792-49.6279L11.4832-14.7831C9.03115-12.3 9.375-9.30859 11.4544-7.27578ZM58.5361-33.7174L58.5361-20.9518C58.5361-18.0625 60.762-15.6613 63.6114-15.6613C66.4098-15.6613 68.7621-18.0092 68.7621-21.0694L68.7776-59.1554C68.7776-62.4064 66.6229-64.6611 63.2563-64.6611L25.1549-64.6611C22.0125-64.6611 19.7801-62.3088 19.7801-59.4771C19.7801-56.7099 22.1635-54.4685 25.0527-54.4685L37.6852-54.4685L59.5638-55.3629Z" data-clipstroke-keyframes="0 0 0 0.053911023 0.94413215 0 1 0.45019072 0.54798865"/>
  </g>
  <g id="Medium-S" transform="matrix(1 0 0 1 1707.75 696)">
   <path d="M11.2725-7.57227C13.1562-5.7373 15.7979-5.66211 17.8535-7.65137L53.8105-43.5996L61.8906-52.3408C63.667-54.2275 63.5615-56.6426 61.9609-58.2607C60.3115-59.9365 57.8701-60.0771 55.957-58.2344L47.2158-50.2344L11.2676-14.2373C9.15918-12.1113 9.375-9.44336 11.2725-7.57227ZM58.6035-33.2188L58.6035-20.9922C58.6035-18.4668 60.6475-16.2812 63.2139-16.2812C65.709-16.2812 67.8457-18.373 67.8457-21.1436L67.8545-59.2295C67.8545-62.1504 65.9355-64.1895 62.8857-64.1895L24.791-64.1895C21.9316-64.1895 19.9688-62.0527 19.9688-59.5176C19.9688-57.04 22.123-54.9873 24.6484-54.9873L36.7148-54.9873L59.6514-55.875Z" data-clipstroke-keyframes="0 0 0 0.04812215 0.95095074 0 1 0.45621976 0.5430194"/>
  </g>
  <g id="Regular-S" transform="matrix(1 0 0 1 1411.64 696)">
   <path d="M11.0352-7.95898C12.6465-6.39648 14.8926-6.34766 16.5527-7.95898L54.0039-45.4102L62.207-54.248C63.623-55.7129 63.623-57.7148 62.207-59.1309C60.7422-60.5957 58.7402-60.5957 57.2754-59.1309L48.4375-51.0254L10.9863-13.5254C9.32617-11.8652 9.375-9.61914 11.0352-7.95898ZM58.6914-32.5684L58.6914-21.0449C58.6914-18.9941 60.498-17.0898 62.6953-17.0898C64.7949-17.0898 66.6504-18.8477 66.6504-21.2402L66.6504-59.3262C66.6504-61.8164 65.0391-63.5742 62.4023-63.5742L24.3164-63.5742C21.8262-63.5742 20.2148-61.7188 20.2148-59.5703C20.2148-57.4707 22.0703-55.6641 24.1211-55.6641L35.4492-55.6641L59.7656-56.543Z" data-clipstroke-keyframes="0 0 0 0.040501527 0.95886 0 1 0.46361247 0.53595406"/>
  </g>
  <g id="Light-S" transform="matrix(1 0 0 1 1115.26 696)">
   <path d="M10.7022-8.09521C11.9351-6.91113 13.6362-6.83203 14.9331-8.09521L54.8818-48.0288L62.4189-56.0493C63.5474-57.1963 63.502-58.729 62.4492-59.812C61.3628-60.8984 59.8149-60.9287 58.6831-59.7969L50.6474-52.2969L10.6987-12.3145C9.43213-11.0479 9.48096-9.33155 10.7022-8.09521ZM59.9023-37.4423L59.9023-21.0903C59.9023-19.5088 61.27-18.0586 62.9526-18.0586C64.5679-18.0586 65.9844-19.4077 65.9844-21.2251L65.939-60.0527C65.939-61.9375 64.6909-63.2866 62.7051-63.2866L23.8623-63.2866C21.9775-63.2866 20.7295-61.8701 20.7295-60.2363C20.7295-58.6362 22.146-57.2837 23.7275-57.2837L38.7339-57.2837L60.6587-57.9355Z" data-clipstroke-keyframes="0 0 0 0.031419124 0.96831244 0 1 0.47237238 0.5274086"/>
  </g>
  <g id="Thin-S" transform="matrix(1 0 0 1 818.988 696)">
   <path d="M10.2617-8.27539C10.9942-7.59179 11.9746-7.47265 12.791-8.27539L56.043-51.4921L62.6992-58.4316C63.4473-59.1582 63.3418-60.0703 62.7695-60.7129C62.1836-61.2988 61.2363-61.3691 60.5449-60.6777L53.5703-53.9785L10.3184-10.7129C9.57226-9.96681 9.62109-8.95118 10.2617-8.27539ZM61.5039-43.8886L61.5039-21.1504C61.5039-20.1894 62.291-19.3398 63.293-19.3398C64.2676-19.3398 65.1035-20.1484 65.1035-21.2051L64.9981-61.0137C64.9981-62.0977 64.2305-62.9063 63.1055-62.9063L23.2617-62.9063C22.1777-62.9063 21.4101-62.0703 21.4101-61.1172C21.4101-60.1777 22.2461-59.4258 23.207-59.4258L43.0781-59.4258L61.8398-59.7773Z" data-clipstroke-keyframes="0 0 0 0.019315168 0.98086685 0 1 0.48384252 0.51625156"/>
  </g>
  <g id="Ultralight-S" transform="matrix(1 0 0 1 522.502 696)">
   <path d="M10.0361-8.36767C10.5122-7.94042 11.1236-7.80077 11.6939-8.36767L56.6377-53.2661L62.8428-59.6518C63.396-60.1631 63.2598-60.7573 62.9336-61.1743C62.604-61.5039 61.9643-61.5947 61.4985-61.1289L55.0673-54.8398L10.1235-9.89261C9.64404-9.41311 9.69287-8.75635 10.0361-8.36767ZM62.3242-47.1903L62.3242-21.1812C62.3242-20.5381 62.8139-19.9961 63.4673-19.9961C64.1138-19.9961 64.6524-20.5278 64.6524-21.1948L64.5161-61.5058C64.5161-62.1797 63.9946-62.7114 63.3105-62.7114L22.9541-62.7114C22.2803-62.7114 21.7588-62.1728 21.7588-61.5683C21.7588-60.9673 22.2974-60.5229 22.9404-60.5229L45.3031-60.5229L62.4448-60.7207Z" data-clipstroke-keyframes="0 0 0 0.01309617 0.9880778 0 1 0.4904277 0.5106289"/>
  </g>
 </g>
 <g id="Data">
  <g id="Black-L-draw-attachment-data" data-d="0 1 0 2959.57 1494.6"/>
  <g id="Heavy-L-draw-attachment-data" data-d="0 1 0 2665.41 1492.05"/>
  <g id="Bold-L-draw-attachment-data" data-d="0 1 0 2371.76 1488.97"/>
  <g id="Semibold-L-draw-attachment-data" data-d="0 1 0 2077.16 1486.85"/>
  <g id="Medium-L-draw-attachment-data" data-d="0 1 0 1782.05 1485.24"/>
  <g id="Regular-L-draw-attachment-data" data-d="0 1 0 1487.42 1483.15"/>
  <g id="Light-L-draw-attachment-data" data-d="0 1 0 1192.19 1481.55"/>
  <g id="Thin-L-draw-attachment-data" data-d="0 1 0 897.442 1479.44"/>
  <g id="Ultralight-L-draw-attachment-data" data-d="0 1 0 601.734 1478.36"/>
  <g id="Black-M-draw-attachment-data" data-d="0 1 0 2951.68 1072.47"/>
  <g id="Heavy-M-draw-attachment-data" data-d="0 1 0 2657.33 1070.12"/>
  <g id="Bold-M-draw-attachment-data" data-d="0 1 0 2363.25 1067.5"/>
  <g id="Semibold-M-draw-attachment-data" data-d="0 1 0 2068.36 1065.69"/>
  <g id="Medium-M-draw-attachment-data" data-d="0 1 0 1773.03 1064.32"/>
  <g id="Regular-M-draw-attachment-data" data-d="0 1 0 1478.11 1062.53"/>
  <g id="Light-M-draw-attachment-data" data-d="0 1 0 1182.73 1061.1"/>
  <g id="Thin-M-draw-attachment-data" data-d="0 1 0 887.777 1059.21"/>
  <g id="Ultralight-M-draw-attachment-data" data-d="0 1 0 591.965 1058.24"/>
  <g id="Black-S-draw-attachment-data" data-d="0 1 0 2947.09 647.055"/>
  <g id="Heavy-S-draw-attachment-data" data-d="0 1 0 2652.23 645.232"/>
  <g id="Bold-S-draw-attachment-data" data-d="0 1 0 2357.58 643.193"/>
  <g id="Semibold-S-draw-attachment-data" data-d="0 1 0 2062.29 641.788"/>
  <g id="Medium-S-draw-attachment-data" data-d="0 1 0 1766.66 640.722"/>
  <g id="Regular-S-draw-attachment-data" data-d="0 1 0 1471.36 639.332"/>
  <g id="Light-S-draw-attachment-data" data-d="0 1 0 1175.82 638.066"/>
  <g id="Thin-S-draw-attachment-data" data-d="0 1 0 880.664 636.391"/>
  <g id="Ultralight-S-draw-attachment-data" data-d="0 1 0 584.749 635.533"/>
 </g>
</svg>
